<svg width="31" height="24" viewBox="0 0 31 24" fill="none" xmlns="http://www.w3.org/2000/svg">
<path fill-rule="evenodd" clip-rule="evenodd" d="M18.1585 0.189536C16.6959 0.703318 1.58342 6.25153 1.27885 6.38659C0.794285 6.6014 0.402825 6.96914 0.182334 7.4167C0.0244799 7.7369 -0.00373027 7.87885 0.000368072 8.33143C0.00521777 8.86517 0.0123215 8.88559 1.96354 13.9856C3.04058 16.8008 3.98279 19.2009 4.05738 19.3191C4.51189 20.04 5.45799 20.4497 6.28135 20.2821C6.49453 20.2387 7.10771 19.9984 7.64404 19.7481L8.61924 19.2931L8.64261 20.8765C8.66453 22.3568 8.67601 22.4797 8.81924 22.7633C9.05954 23.2393 9.3357 23.522 9.80305 23.7704L10.2351 24H19.832H29.429L29.7778 23.8195C30.2947 23.5523 30.5074 23.3505 30.7666 22.8818L31 22.4599V16.534V10.6081L30.7658 10.1845C30.5127 9.72707 30.2251 9.45683 29.7385 9.21912C29.4359 9.07141 29.37 9.06752 26.8222 9.04763C24.8795 9.03243 24.2072 9.00686 24.1834 8.94719C22.3259 4.30334 21.0046 1.10976 20.8489 0.887859C20.6081 0.544891 20.1345 0.211499 19.7099 0.0862176C19.231 -0.0550674 18.7669 -0.024132 18.1585 0.189536ZM19.5098 1.15811C19.6307 1.2086 19.7981 1.3229 19.8819 1.41209C19.9669 1.50262 20.6956 3.21457 21.5316 5.28765L23.0291 9.00103L16.632 9.03451L10.2351 9.06799L9.89355 9.23378C9.70571 9.32498 9.42832 9.52084 9.27716 9.66902C9.126 9.8172 8.92621 10.0891 8.83318 10.2733L8.66405 10.6081L8.64486 14.3601L8.6256 18.1122L7.41536 18.6722C6.46338 19.1126 6.13838 19.2327 5.89282 19.2351C5.52404 19.2387 5.12439 19.0258 4.97766 18.7477C4.77111 18.3561 1.04797 8.48142 1.04797 8.32514C1.04797 8.08375 1.2087 7.75304 1.41908 7.5614C1.64339 7.3571 18.7188 1.07595 19.0658 1.07006C19.1891 1.06798 19.3889 1.10762 19.5098 1.15811ZM29.4368 10.2774C29.7952 10.5397 29.901 10.7477 29.9298 11.2463L29.9567 11.7129H19.8397H9.72279V11.349C9.72279 10.9297 9.8064 10.6744 10.0177 10.4489C10.3505 10.0936 9.87347 10.1093 19.9124 10.1248C29.2235 10.1393 29.2487 10.1397 29.4368 10.2774ZM29.9413 13.8556V14.927H19.832H9.72279V13.8556V12.7843H19.832H29.9413V13.8556ZM29.9262 19.1406C29.9077 22.1948 29.9031 22.288 29.7663 22.4677C29.6888 22.5693 29.5406 22.7146 29.4368 22.7906C29.2484 22.9284 29.2357 22.9286 19.832 22.9286C10.4283 22.9286 10.4156 22.9284 10.2272 22.7906C10.1235 22.7146 9.97525 22.5693 9.89779 22.4677C9.7609 22.288 9.7564 22.1948 9.73789 19.1406L9.7189 15.9983H19.832H29.9452L29.9262 19.1406ZM10.9834 17.6358C10.8776 17.7394 10.8157 17.8767 10.8157 18.0071C10.8157 18.1375 10.8776 18.2748 10.9834 18.3784L11.151 18.5428H13.5479H15.9448L16.1124 18.3784C16.2182 18.2748 16.2801 18.1375 16.2801 18.0071C16.2801 17.8767 16.2182 17.7394 16.1124 17.6358L15.9448 17.4714H13.5479H11.151L10.9834 17.6358Z" fill="#6D2100"/>
</svg>
