<svg width="11" height="13" viewBox="0 0 11 13" fill="none" xmlns="http://www.w3.org/2000/svg">
<path fill-rule="evenodd" clip-rule="evenodd" d="M3.7327 0.0658796C3.40033 0.216065 3.27715 0.451871 3.27715 0.937963V1.27504L1.91961 1.28593L0.562076 1.29681L0.388165 1.39659C0.292499 1.45148 0.169501 1.56232 0.114835 1.64286C0.0161811 1.78824 0.015343 1.79471 0.00419114 2.49203C-0.0061954 3.14343 -0.00153086 3.20518 0.0680043 3.33825C0.21921 3.62753 0.465208 3.76704 0.826295 3.76828L1.05407 3.76907V7.87852C1.05407 11.871 1.05611 11.9936 1.12561 12.1866C1.23465 12.4894 1.44253 12.7331 1.71473 12.8771L1.94695 13H5.50024H9.05353L9.22773 12.9131C9.46655 12.794 9.70424 12.5558 9.82621 12.3134L9.92818 12.1107L9.94641 7.94878L9.96463 3.78685L10.2197 3.76665C10.5141 3.74335 10.6554 3.68106 10.814 3.5047C10.9881 3.31115 11.01 3.18505 10.9969 2.45016C10.9852 1.79895 10.9836 1.78721 10.8856 1.64286C10.831 1.56229 10.708 1.45148 10.6123 1.39659L10.4384 1.29681L9.08086 1.28593L7.72332 1.27504V0.937963C7.72332 0.569757 7.68568 0.44216 7.5208 0.251281C7.30283 -0.00106698 7.31125 7.50425e-08 5.50024 7.50425e-08C3.99849 7.50425e-08 3.86769 0.00487362 3.7327 0.0658796ZM3.85173 0.529063C3.73628 0.629731 3.7323 0.642573 3.71999 0.955927L3.70723 1.27903H5.49663H7.28599V1.00872C7.28599 0.679639 7.21854 0.517644 7.05895 0.463361C6.98661 0.438745 6.42165 0.425299 5.45895 0.425299H3.97076L3.85173 0.529063ZM0.555006 1.82723L0.452744 1.91299L0.441009 2.47176C0.427998 3.09085 0.453254 3.20632 0.620058 3.29052C0.769515 3.36596 10.1756 3.36856 10.3604 3.29322C10.5471 3.21706 10.5729 3.11077 10.5595 2.47176L10.5477 1.91299L10.4455 1.82723L10.3432 1.74146H5.50024H0.657268L0.555006 1.82723ZM1.4914 7.80001C1.4914 12.337 1.47638 12.0803 1.75802 12.3548C1.84571 12.4403 1.97424 12.522 2.06051 12.5472C2.27039 12.6084 8.66846 12.6105 8.9169 12.5494C9.03184 12.5211 9.13425 12.4607 9.23713 12.3602C9.52654 12.0777 9.50908 12.3694 9.50908 7.81794V3.76907H5.50024H1.4914V7.80001ZM3.14049 5.17494L3.05849 5.23154V8.17999V11.1284L3.13951 11.1838C3.24851 11.2583 3.33536 11.2535 3.42293 11.168C3.49462 11.0981 3.49582 11.0495 3.49582 8.18679C3.49582 5.91345 3.48583 5.26394 3.45026 5.21848C3.38127 5.1303 3.23492 5.10974 3.14049 5.17494ZM5.35782 5.18305L5.28023 5.2453L5.29003 8.19643L5.2998 11.1475L5.40002 11.2023C5.49022 11.2515 5.51026 11.2515 5.60046 11.2023L5.70068 11.1475L5.71001 8.2055C5.71919 5.30194 5.71836 5.26256 5.64623 5.19216C5.55622 5.1043 5.45979 5.10127 5.35782 5.18305ZM7.57755 5.19195C7.50586 5.26192 7.50466 5.31051 7.50466 8.17999C7.50466 11.0495 7.50586 11.0981 7.57755 11.168C7.66851 11.2568 7.80252 11.2595 7.88167 11.1741C7.93677 11.1147 7.94199 10.8549 7.94199 8.17032V5.23154L7.86097 5.17619C7.75197 5.10167 7.66512 5.10647 7.57755 5.19195Z" fill="#B50000"/>
</svg>
