<svg width="21" height="18" viewBox="0 0 21 18" fill="none" xmlns="http://www.w3.org/2000/svg">
<path fill-rule="evenodd" clip-rule="evenodd" d="M5.15865 0.0846837C4.79444 0.214666 4.51418 0.423651 4.33351 0.699907C4.18359 0.929181 4.03074 1.35197 4.03074 1.53744C4.03074 1.62561 3.94051 1.63058 2.33134 1.63058C0.435839 1.63058 0.405087 1.6355 0.145971 1.97964C-0.048657 2.23807 -0.048657 2.6626 0.145971 2.92102C0.404986 3.26506 0.436497 3.27009 2.32562 3.27009H4.01926L4.05153 3.48819C4.13185 4.03071 4.49 4.51344 4.98739 4.74974C5.2671 4.88264 5.28181 4.88397 6.45854 4.88397C7.63526 4.88397 7.64997 4.88264 7.92968 4.74974C8.42707 4.51344 8.78522 4.03071 8.86554 3.48819L8.89781 3.27009H14.6378C21.0271 3.27009 20.5822 3.29504 20.8637 2.92102C20.9746 2.77388 21 2.68601 21 2.45033C21 2.21465 20.9746 2.12679 20.8637 1.97964C20.5822 1.60563 21.0271 1.63058 14.6378 1.63058H8.89781L8.86554 1.41248C8.78522 0.869954 8.42707 0.387223 7.92968 0.15093C7.65498 0.0204356 7.61619 0.0163368 6.5344 0.00378432C5.56384 -0.00748727 5.38808 0.00281098 5.15865 0.0846837ZM5.64927 2.45033V3.27009H6.45854H7.2678V2.45033V1.63058H6.45854H5.64927V2.45033ZM11.6328 6.6427C11.2685 6.77268 10.9883 6.98167 10.8076 7.25792C10.6577 7.4872 10.5049 7.90998 10.5049 8.09545C10.5049 8.18486 10.3069 8.1886 5.5684 8.1886C0.0740985 8.1886 0.425825 8.16595 0.145971 8.53766C-0.048657 8.79608 -0.048657 9.22061 0.145971 9.47904C0.425825 9.85075 0.0747556 9.8281 5.56268 9.8281H10.4934L10.5256 10.0462C10.606 10.5887 10.9641 11.0715 11.4615 11.3078C11.7412 11.4407 11.7559 11.442 12.9326 11.442C14.1094 11.442 14.1241 11.4407 14.4038 11.3078C14.9012 11.0715 15.2593 10.5887 15.3397 10.0462L15.3719 9.8281H17.8748C20.6616 9.8281 20.5951 9.83589 20.8637 9.47904C20.9746 9.33189 21 9.24403 21 9.00835C21 8.77267 20.9746 8.6848 20.8637 8.53766C20.5951 8.18081 20.6616 8.1886 17.8748 8.1886H15.3719L15.3397 7.97049C15.2593 7.42797 14.9012 6.94524 14.4038 6.70894C14.1291 6.57845 14.0903 6.57435 13.0085 6.5618C12.038 6.55053 11.8622 6.56082 11.6328 6.6427ZM12.1234 9.00835V9.8281H12.9326H13.7419V9.00835V8.1886H12.9326H12.1234V9.00835ZM5.15865 13.2007C4.79444 13.3307 4.51418 13.5397 4.33351 13.8159C4.18359 14.0452 4.03074 14.468 4.03074 14.6535C4.03074 14.7416 3.94051 14.7466 2.33134 14.7466C0.435839 14.7466 0.405087 14.7515 0.145971 15.0957C-0.048657 15.3541 -0.048657 15.7786 0.145971 16.0371C0.404986 16.3811 0.436497 16.3861 2.32562 16.3861H4.01926L4.05153 16.6042C4.13185 17.1467 4.49 17.6295 4.98739 17.8658C5.2671 17.9987 5.28181 18 6.45854 18C7.63526 18 7.64997 17.9987 7.92968 17.8658C8.42707 17.6295 8.78522 17.1467 8.86554 16.6042L8.89781 16.3861H14.6378C21.0271 16.3861 20.5822 16.4111 20.8637 16.0371C20.9746 15.8899 21 15.802 21 15.5664C21 15.3307 20.9746 15.2428 20.8637 15.0957C20.5822 14.7217 21.0271 14.7466 14.6378 14.7466H8.89781L8.86554 14.5285C8.78522 13.986 8.42707 13.5033 7.92968 13.267C7.65498 13.1365 7.61619 13.1324 6.5344 13.1198C5.56384 13.1085 5.38808 13.1188 5.15865 13.2007ZM5.64927 15.5664V16.3861H6.45854H7.2678V15.5664V14.7466H6.45854H5.64927V15.5664Z" fill="#5E5E5E"/>
</svg>
