<svg width="25" height="25" viewBox="0 0 25 25" fill="none" xmlns="http://www.w3.org/2000/svg">
<path fill-rule="evenodd" clip-rule="evenodd" d="M9.23287 0.0910677C9.09684 0.198061 9.09163 0.220058 9.09163 0.688979V1.17577H6.53534C4.0479 1.17577 3.97627 1.17855 3.87578 1.27904C3.77317 1.38164 3.77249 1.45115 3.77249 12.1746V22.9668H2.02364C0.332567 22.9668 0.270286 22.9703 0.138702 23.0738C-0.0318196 23.2079 -0.0478802 23.4843 0.10591 23.6381C0.207593 23.7398 0.278033 23.7414 4.64871 23.7414H9.08822L9.10283 24.3169C9.12571 25.2172 8.48055 25.2053 14.3274 24.4127L19.2791 23.7414H22.0349C24.722 23.7414 24.7934 23.7388 24.8941 23.6381C25.0479 23.4843 25.0318 23.2079 24.8613 23.0738C24.7297 22.9703 24.6674 22.9668 22.9764 22.9668H21.2275V19.8766C21.2275 16.9483 21.2225 16.7818 21.1331 16.7008C21.0054 16.5853 20.698 16.5904 20.59 16.7098C20.5125 16.7954 20.5045 17.0854 20.5045 19.8081C20.5045 21.7675 20.4866 22.8119 20.4531 22.8119C20.4248 22.8119 19.2106 22.9736 17.7548 23.1711C16.299 23.3687 13.9808 23.682 12.6033 23.8674C11.2257 24.0528 10.0348 24.2159 9.95663 24.2298L9.81461 24.2552V12.5347C9.81461 6.08851 9.82716 0.814303 9.8425 0.814303C9.92802 0.814303 20.1496 1.85258 20.3109 1.87767L20.5045 1.90778V4.73529C20.5045 7.40898 20.5097 7.56746 20.599 7.64827C20.7266 7.76378 21.034 7.75867 21.142 7.63929C21.2196 7.55362 21.2275 7.25707 21.2275 4.44576C21.2275 1.51848 21.2223 1.34199 21.1338 1.26195C21.0259 1.1643 21.1862 1.18238 14.4366 0.504994C11.8803 0.248407 9.69548 0.0253331 9.58145 0.00927379C9.41805 -0.0138082 9.3441 0.00359369 9.23287 0.0910677ZM9.09163 2.56998V3.24127H7.54613H6.00059L5.89359 3.37733L5.78653 3.5134V13.2401V22.9668H5.16683H4.54713V12.4327V1.89869H6.81938H9.09163V2.56998ZM9.09163 13.4913V22.9668H7.8264H6.56116V13.4913V4.01583H7.8264H9.09163V13.4913ZM20.6078 9.59268C20.5144 9.68609 20.5045 9.76479 20.5045 10.4159C20.5045 11.1014 20.51 11.1398 20.6193 11.2163C20.7774 11.3271 21.0006 11.317 21.1242 11.1934C21.2173 11.1004 21.2275 11.0213 21.2275 10.3931C21.2275 9.76479 21.2173 9.68573 21.1242 9.59268C21.0668 9.53531 20.9521 9.48941 20.866 9.48941C20.7799 9.48941 20.6652 9.53531 20.6078 9.59268ZM11.3204 11.3778C10.8408 11.6202 10.6159 12.0424 10.6496 12.6373C10.6749 13.0864 10.8674 13.4194 11.2321 13.6449C11.4625 13.7873 11.5244 13.8011 11.9319 13.8011C12.3396 13.8011 12.4014 13.7873 12.6331 13.6444C12.9234 13.4653 13.1937 13.0662 13.2354 12.755C13.3059 12.2294 13.0621 11.6932 12.6318 11.4272C12.4193 11.2958 12.3166 11.2683 11.9876 11.2547C11.6462 11.2405 11.561 11.2562 11.3204 11.3778ZM12.3181 12.1775C12.7611 12.6143 12.1718 13.3229 11.6499 12.981C11.573 12.9306 11.4762 12.8082 11.4347 12.7087C11.3664 12.5454 11.3681 12.5098 11.4519 12.3384C11.5604 12.1165 11.8425 11.9508 12.0352 11.9957C12.1062 12.0123 12.2335 12.0941 12.3181 12.1775ZM20.59 13.1468C20.5192 13.225 20.5045 13.3628 20.5045 13.9472C20.5045 14.5843 20.5146 14.6632 20.6078 14.7564C20.6652 14.8138 20.7799 14.8597 20.866 14.8597C20.9521 14.8597 21.0668 14.8138 21.1242 14.7564C21.2175 14.6631 21.2275 14.5843 21.2275 13.9382C21.2275 13.3112 21.2159 13.2128 21.1331 13.1379C21.0054 13.0223 20.698 13.0275 20.59 13.1468Z" fill="#6D2100"/>
</svg>
