<svg width="85" height="106" viewBox="0 0 85 106" fill="none" xmlns="http://www.w3.org/2000/svg">
<path fill-rule="evenodd" clip-rule="evenodd" d="M10.0171 18.4063L26.3715 9.20969C35.3674 4.15087 42.9536 0.00699332 43.2309 8.76807e-06C43.5082 -0.00697579 50.9947 4.15982 59.8675 9.26054L76 18.534V37.8673V57.1996L59.5811 66.5998L43.1623 76L26.5812 66.6596L10 57.3203L10.0091 37.8633L10.0171 18.4063ZM51.3203 23.53L59.3634 28.1548V37.9102V47.6666L51.2628 52.2904L43.1623 56.9142L34.6333 52.1278L26.1032 47.3424L26.1002 37.8633L26.0962 28.3843L34.4115 23.7056C38.9851 21.1323 42.8507 19 43.002 18.9661C43.1532 18.9321 46.897 20.9866 51.3203 23.53ZM71.9669 20.6673L58.3551 12.8516C50.8686 8.5531 44.0627 5.02491 43.2309 5.01194C42.3991 4.99797 35.5932 8.4753 28.1067 12.7389L14.4949 20.4907V37.9002V55.3087L28.7681 63.4518L43.0423 71.5937L57.5041 63.3191L71.9669 55.0453V37.8563V20.6673ZM33.1481 19.944C28.4344 22.65 24.0111 25.6294 23.3174 26.5653C22.5047 27.6629 22.057 31.8656 22.057 38.3981C22.057 46.8155 22.3555 48.7812 23.8215 50.0175C26.2252 52.045 41.8899 60.8126 43.1079 60.8126C43.6464 60.8126 48.3176 58.3929 53.4891 55.4365L62.8924 50.0594L63.1747 38.0868L63.4571 26.1143L53.7916 20.5137C48.475 17.4345 43.5838 14.939 42.9223 14.9689C42.2599 14.9989 37.8618 17.2379 33.1481 19.944Z" fill="#6D2100"/>
<path d="M1.328 105V93.8H6.176C7.17867 93.8 8.04267 93.9653 8.768 94.296C9.49333 94.616 10.0533 95.08 10.448 95.688C10.8427 96.296 11.04 97.0213 11.04 97.864C11.04 98.696 10.8427 99.416 10.448 100.024C10.0533 100.632 9.49333 101.101 8.768 101.432C8.04267 101.752 7.17867 101.912 6.176 101.912H2.768L3.92 100.744V105H1.328ZM3.92 101.032L2.768 99.8H6.032C6.832 99.8 7.42933 99.6293 7.824 99.288C8.21867 98.9467 8.416 98.472 8.416 97.864C8.416 97.2453 8.21867 96.7653 7.824 96.424C7.42933 96.0827 6.832 95.912 6.032 95.912H2.768L3.92 94.68V101.032ZM13.0505 105V93.8H15.6425V102.888H21.2585V105H13.0505ZM21.4572 105L26.4492 93.8H29.0093L34.0173 105H31.2972L27.2013 95.112H28.2253L24.1132 105H21.4572ZM23.9532 102.6L24.6412 100.632H30.4012L31.1053 102.6H23.9532ZM35.3392 105V93.8H37.4832L44.0913 101.864H43.0512V93.8H45.6112V105H43.4832L36.8592 96.936H37.8992V105H35.3392ZM50.8051 98.312H56.1971V100.328H50.8051V98.312ZM50.9971 102.92H57.0931V105H48.4211V93.8H56.8851V95.88H50.9971V102.92ZM59.3155 105V93.8H64.1635C65.1662 93.8 66.0302 93.9653 66.7555 94.296C67.4808 94.616 68.0408 95.08 68.4355 95.688C68.8302 96.296 69.0275 97.0213 69.0275 97.864C69.0275 98.696 68.8302 99.416 68.4355 100.024C68.0408 100.621 67.4808 101.08 66.7555 101.4C66.0302 101.72 65.1662 101.88 64.1635 101.88H60.7555L61.9075 100.744V105H59.3155ZM66.4355 105L63.6355 100.936H66.4035L69.2355 105H66.4355ZM61.9075 101.032L60.7555 99.816H64.0195C64.8195 99.816 65.4168 99.6453 65.8115 99.304C66.2062 98.952 66.4035 98.472 66.4035 97.864C66.4035 97.2453 66.2062 96.7653 65.8115 96.424C65.4168 96.0827 64.8195 95.912 64.0195 95.912H60.7555L61.9075 94.68V101.032ZM76.6811 105.192C75.7958 105.192 74.9745 105.048 74.2171 104.76C73.4705 104.472 72.8198 104.067 72.2651 103.544C71.7211 103.021 71.2945 102.408 70.9851 101.704C70.6865 101 70.5371 100.232 70.5371 99.4C70.5371 98.568 70.6865 97.8 70.9851 97.096C71.2945 96.392 71.7265 95.7787 72.2811 95.256C72.8358 94.7333 73.4865 94.328 74.2331 94.04C74.9798 93.752 75.7905 93.608 76.6651 93.608C77.5505 93.608 78.3611 93.752 79.0971 94.04C79.8438 94.328 80.4891 94.7333 81.0331 95.256C81.5878 95.7787 82.0198 96.392 82.3291 97.096C82.6385 97.7893 82.7931 98.5573 82.7931 99.4C82.7931 100.232 82.6385 101.005 82.3291 101.72C82.0198 102.424 81.5878 103.037 81.0331 103.56C80.4891 104.072 79.8438 104.472 79.0971 104.76C78.3611 105.048 77.5558 105.192 76.6811 105.192ZM76.6651 102.984C77.1665 102.984 77.6251 102.899 78.0411 102.728C78.4678 102.557 78.8411 102.312 79.1611 101.992C79.4811 101.672 79.7265 101.293 79.8971 100.856C80.0785 100.419 80.1691 99.9333 80.1691 99.4C80.1691 98.8667 80.0785 98.3813 79.8971 97.944C79.7265 97.5067 79.4811 97.128 79.1611 96.808C78.8518 96.488 78.4838 96.2427 78.0571 96.072C77.6305 95.9013 77.1665 95.816 76.6651 95.816C76.1638 95.816 75.6998 95.9013 75.2731 96.072C74.8571 96.2427 74.4891 96.488 74.1691 96.808C73.8491 97.128 73.5985 97.5067 73.4171 97.944C73.2465 98.3813 73.1611 98.8667 73.1611 99.4C73.1611 99.9227 73.2465 100.408 73.4171 100.856C73.5985 101.293 73.8438 101.672 74.1531 101.992C74.4731 102.312 74.8465 102.557 75.2731 102.728C75.6998 102.899 76.1638 102.984 76.6651 102.984Z" fill="#6D2100"/>
</svg>
