<svg width="85" height="99" viewBox="0 0 85 99" fill="none" xmlns="http://www.w3.org/2000/svg">
<path fill-rule="evenodd" clip-rule="evenodd" d="M0.0220334 23.9767L21.0845 11.9968C32.6701 5.40706 42.4403 0.00910973 42.7974 1.14216e-05C43.1545 -0.00908688 52.7961 5.41871 64.2233 12.0631L85 24.143V49.3272V74.51L63.8545 86.755L42.7091 99L21.3546 86.8329L0 74.6672L0.01173 49.3219L0.0220334 23.9767ZM53.2155 30.6509L63.574 36.6753V49.383V62.0921L53.1415 68.1151L42.7091 74.1383L31.7247 67.9033L20.739 61.6696L20.7351 49.3219L20.7299 36.9743L31.4391 30.8797C37.3293 27.5276 42.3078 24.75 42.5025 24.7058C42.6973 24.6616 47.5188 27.3379 53.2155 30.6509ZM79.8058 26.9219L62.2755 16.7409C52.6338 11.1415 43.8687 6.5456 42.7974 6.52871C41.7261 6.51051 32.9609 11.0402 23.3192 16.5941L5.78891 26.6919V49.37V72.0469L24.1711 82.6543L42.5545 93.2603L61.1795 82.4814L79.8058 71.7037V49.3128V26.9219ZM29.8119 25.9796C23.7413 29.5046 18.0446 33.3856 17.1512 34.6048C16.1045 36.0345 15.528 41.5091 15.528 50.0186C15.528 60.9834 15.9123 63.5439 17.8004 65.1543C20.8962 67.7954 41.0704 79.2164 42.639 79.2164C43.3324 79.2164 49.3484 76.0645 56.0087 72.2133L68.1189 65.2089L68.4826 49.6131L68.8462 34.0173L56.3983 26.7218C49.5511 22.7107 43.2518 19.46 42.4 19.499C41.5468 19.538 35.8826 22.4547 29.8119 25.9796Z" fill="white" fill-opacity="0.14"/>
</svg>
