<svg width="20" height="24" viewBox="0 0 20 24" fill="none" xmlns="http://www.w3.org/2000/svg">
<path fill-rule="evenodd" clip-rule="evenodd" d="M9.31631 0.0286322C7.22559 0.236095 5.35671 1.48582 4.42374 3.30029C3.22453 5.63254 3.68542 8.38781 5.57995 10.2123C8.7522 13.2673 14.0489 12.1865 15.7072 8.14592C16.1433 7.08313 16.2349 5.75902 15.9547 4.56795C15.578 2.96689 14.335 1.44421 12.7707 0.667657C11.7189 0.145477 10.469 -0.0857148 9.31631 0.0286322ZM9.04992 1.09827C7.94399 1.30169 6.95187 1.82477 6.20353 2.59902C4.17175 4.70108 4.41233 8.04372 6.72506 9.84604C8.77274 11.4419 11.7227 11.2817 13.5767 9.47408C15.3067 7.78745 15.559 5.14672 14.1783 3.1754C13.9468 2.84485 13.2862 2.19793 12.9223 1.94541C12.4942 1.64837 11.7351 1.30818 11.2008 1.174C10.6475 1.03508 9.59499 0.998009 9.04992 1.09827ZM8.82642 13.5213C6.64939 13.759 4.66907 14.6636 3.10654 16.134C2.23422 16.9549 1.69318 17.6596 1.15895 18.6704C0.437966 20.0345 0 21.7286 0 23.1532C0 23.7191 0.0732955 23.8655 0.402815 23.9577C0.536037 23.9951 3.45092 24.0067 10.0652 23.9964C20.3529 23.9804 19.6729 24.0001 19.8305 23.7135C19.9095 23.5699 19.9028 22.8311 19.8162 22.1333C19.1893 17.082 14.9747 13.4202 9.84786 13.4726C9.49898 13.4762 9.03934 13.4981 8.82642 13.5213ZM9.31678 14.5239C8.14173 14.5879 7.10496 14.8629 5.96171 15.4138C3.53558 16.583 1.79889 18.8198 1.24416 21.4899C1.1878 21.7614 1.12736 22.1521 1.10986 22.3581C1.09241 22.5642 1.06738 22.7833 1.05422 22.8452L1.03037 22.9576H9.93422H18.8381L18.8109 22.7203C18.6866 21.6361 18.5615 21.0548 18.2869 20.285C17.6482 18.4947 16.4354 16.9544 14.8656 15.9401C13.2134 14.8725 11.4025 14.4104 9.31678 14.5239Z" fill="#6D2100"/>
</svg>
