<svg width="12" height="11" viewBox="0 0 12 11" fill="none" xmlns="http://www.w3.org/2000/svg">
<path fill-rule="evenodd" clip-rule="evenodd" d="M10.0213 0.0281736C9.84586 0.0641369 9.73164 0.108534 9.56482 0.205589C9.4797 0.255112 8.50888 1.13304 6.76327 2.73908C5.29407 4.09083 4.06148 5.23179 4.02414 5.27457C3.96694 5.34016 3.89884 5.54331 3.5898 6.57046C3.19221 7.89193 3.19378 7.88354 3.31906 7.99897C3.44408 8.11415 3.43492 8.11562 4.8713 7.74926L6.19582 7.41141L8.99027 4.83356C11.6464 2.38337 11.7885 2.24834 11.8613 2.10649C12.0507 1.73745 12.0461 1.35925 11.8475 0.990639C11.7744 0.854896 11.7064 0.778709 11.4305 0.523528C11.1501 0.264195 11.0745 0.2068 10.9248 0.139415C10.627 0.0053371 10.3181 -0.0326806 10.0213 0.0281736ZM10.1503 0.56626C9.96412 0.604667 9.895 0.644847 9.66428 0.848949L9.45801 1.03138L10.1693 1.68681L10.8806 2.34223L11.0788 2.15193C11.1879 2.04726 11.2972 1.92532 11.3218 1.88092C11.4304 1.68475 11.426 1.4252 11.3107 1.23008C11.2762 1.17158 11.1348 1.02104 10.9966 0.89553C10.6512 0.581873 10.4515 0.504173 10.1503 0.56626ZM1.12679 1.11204C0.6308 1.22253 0.201434 1.60716 0.043183 2.08273C0.00194792 2.20662 0 2.3851 0 6.0402C0 9.6953 0.00194792 9.87378 0.043183 9.99767C0.206058 10.4872 0.648824 10.8737 1.15895 10.9717C1.30368 10.9995 1.91484 11.0031 5.7557 10.9981L10.1855 10.9924L10.3381 10.9443C10.556 10.8757 10.7674 10.7534 10.9334 10.6C11.1035 10.4428 11.2099 10.2873 11.2961 10.0698L11.359 9.91117L11.3658 8.49844L11.3727 7.08573L11.2806 7.00087C11.2008 6.92741 11.1744 6.91603 11.0833 6.91603C11.0121 6.91603 10.9579 6.93065 10.9158 6.96119C10.7803 7.05941 10.784 7.01864 10.784 8.40605C10.784 9.26839 10.7755 9.71911 10.7576 9.79657C10.6832 10.1197 10.4118 10.3697 10.0612 10.4383C9.9717 10.4558 8.74021 10.4626 5.67154 10.4626C1.8924 10.4626 1.39033 10.4588 1.26639 10.4291C0.909588 10.3434 0.659385 10.0881 0.599962 9.74897C0.566213 9.55625 0.565767 2.52765 0.599516 2.33142C0.657602 1.99367 0.909893 1.73516 1.26733 1.64717C1.35895 1.62461 1.69251 1.61823 2.78927 1.61804C4.3359 1.61776 4.29987 1.62076 4.38706 1.48476C4.47305 1.35064 4.42391 1.17666 4.28077 1.10848C4.18361 1.06218 1.33618 1.0654 1.12679 1.11204ZM6.85872 3.429C5.66157 4.53219 4.68207 5.44454 4.68207 5.45648C4.68207 5.48475 6.04799 6.74303 6.07866 6.74303C6.10936 6.74303 10.432 2.75958 10.432 2.73132C10.432 2.71936 10.1177 2.42017 9.73368 2.06642L9.03538 1.42324L6.85872 3.429ZM4.37697 5.98797C4.37697 5.99476 4.28232 6.31536 4.16662 6.70047C4.05094 7.08555 3.95913 7.40323 3.9626 7.40646C3.96898 7.41232 5.48445 7.02727 5.49567 7.01694C5.499 7.01389 5.24863 6.77834 4.93933 6.49351C4.63004 6.2087 4.37697 5.9812 4.37697 5.98797Z" fill="#8D8D8D"/>
</svg>
