<svg width="21" height="21" viewBox="0 0 21 21" fill="none" xmlns="http://www.w3.org/2000/svg">
<path fill-rule="evenodd" clip-rule="evenodd" d="M7.03125 0.0566422C4.65881 0.40326 2.50527 1.80742 1.23707 3.83469C0.633077 4.8002 0.217877 5.93705 0.0577203 7.06368C-0.0192401 7.60502 -0.0192401 8.79431 0.0577203 9.33565C0.398504 11.7329 1.79532 13.8874 3.83719 15.1651C4.84276 15.7944 6.06867 16.2288 7.22254 16.365C7.78313 16.4311 9.10889 16.3976 9.61684 16.3044C10.6275 16.1192 11.6514 15.7329 12.4807 15.2241L12.7191 15.0779L15.5165 17.8709C17.055 19.407 18.3943 20.7135 18.4926 20.7741C18.7494 20.9325 19.0084 21 19.36 21C19.9928 21 20.4543 20.7351 20.8108 20.1672C20.932 19.9742 21 19.6839 21 19.3597C21 19.0081 20.9326 18.7491 20.7742 18.4922C20.7135 18.3939 19.4073 17.0545 17.8713 15.5157L15.0788 12.7179L15.225 12.4795C15.7337 11.6501 16.1199 10.626 16.3051 9.61519C16.3983 9.10716 16.4317 7.7812 16.3656 7.22053C16.1971 5.79168 15.6131 4.36533 14.7086 3.17354C14.3889 2.75233 13.6481 2.01142 13.2269 1.69167C12.0743 0.816593 10.7367 0.253625 9.33735 0.0546728C8.81844 -0.0190984 7.54236 -0.0179906 7.03125 0.0566422ZM9.25834 0.919249C11.2317 1.23473 12.9387 2.25973 14.0958 3.82394C14.8414 4.832 15.2793 5.88104 15.4809 7.1427C15.563 7.65652 15.5639 8.70466 15.4827 9.24592C14.9968 12.485 12.4862 14.9959 9.24763 15.4819C8.70645 15.5631 7.65846 15.5622 7.14472 15.4801C5.1714 15.1646 3.46436 14.1396 2.30729 12.5754C1.56165 11.5673 1.1238 10.5183 0.92217 9.25663C0.838154 8.73096 0.838154 7.66837 0.92217 7.1427C1.2376 5.1691 2.26245 3.46181 3.82644 2.30457C4.81117 1.57597 5.7934 1.15689 7.03235 0.936768C7.57686 0.840061 8.70723 0.831117 9.25834 0.919249ZM7.17594 1.69746C6.70039 1.77861 6.22944 1.90892 5.76961 2.08658C4.13362 2.71856 2.72122 4.13117 2.08933 5.76739C1.76574 6.6053 1.63918 7.28909 1.63918 8.19967C1.63918 9.11024 1.76574 9.79403 2.08933 10.6319C2.72122 12.2682 4.13362 13.6808 5.76961 14.3127C6.60739 14.6364 7.29109 14.763 8.20153 14.763C9.11197 14.763 9.79567 14.6364 10.6335 14.3127C12.2694 13.6808 13.6818 12.2682 14.3137 10.6319C14.6373 9.79403 14.7639 9.11024 14.7639 8.19967C14.7639 6.71078 14.3349 5.41408 13.4541 4.24031C12.4261 2.87058 10.935 1.98081 9.1861 1.69364C8.7544 1.62274 7.60078 1.62492 7.17594 1.69746ZM9.1148 2.55969C9.69483 2.66116 10.1582 2.81137 10.6835 3.06822C11.3291 3.3839 11.7966 3.72256 12.2924 4.23366C13.3491 5.32283 13.9036 6.68777 13.9036 8.19967C13.9036 9.08611 13.7353 9.84462 13.3675 10.6169C13.078 11.2247 12.7578 11.686 12.2924 12.1657C10.7993 13.7048 8.65496 14.2702 6.57035 13.6743C6.09878 13.5395 5.3156 13.1533 4.87119 12.8365C4.4171 12.5128 3.77294 11.8495 3.47261 11.3964C2.51241 9.94806 2.24928 8.24246 2.7277 6.56825C2.86247 6.09661 3.24858 5.31331 3.56536 4.86884C3.88904 4.41468 4.55223 3.77044 5.00521 3.47006C5.6814 3.02165 6.46311 2.70646 7.25872 2.56138C7.68804 2.48313 8.6719 2.48223 9.1148 2.55969ZM7.89943 3.38427C7.81324 3.47047 7.79154 3.53091 7.7926 3.68173C7.79486 4.01173 7.90825 4.08854 8.46556 4.13749C9.00674 4.18504 9.35117 4.26891 9.80145 4.46273C10.7028 4.85066 11.4246 5.53894 11.8606 6.42612C12.088 6.88869 12.2026 7.00981 12.4134 7.00981C12.6862 7.00981 12.8705 6.77963 12.8245 6.49636C12.795 6.31423 12.5243 5.77244 12.2741 5.39468C12.0253 5.01884 11.3819 4.37538 11.0061 4.12645C10.1765 3.5769 9.24259 3.27611 8.36583 3.27611C8.03345 3.27611 7.99977 3.28391 7.89943 3.38427ZM12.412 7.89752C12.3257 7.98389 12.3039 8.04482 12.3039 8.19967C12.3039 8.35451 12.3257 8.41544 12.412 8.50181C12.4984 8.58817 12.5593 8.60996 12.7141 8.60996C12.869 8.60996 12.9299 8.58817 13.0162 8.50181C13.1026 8.41544 13.1244 8.35451 13.1244 8.19967C13.1244 8.04482 13.1026 7.98389 13.0162 7.89752C12.9299 7.81116 12.869 7.78937 12.7141 7.78937C12.5593 7.78937 12.4984 7.81116 12.412 7.89752ZM15.1315 14.0023L15.6811 14.5532L15.4102 14.8458C15.2612 15.0068 15.0076 15.2605 14.8465 15.4096L14.5537 15.6807L13.9979 15.1248L13.4421 14.569L13.9909 14.0135C14.2927 13.708 14.5492 13.4565 14.5608 13.4547C14.5724 13.4529 14.8292 13.6994 15.1315 14.0023ZM20.0208 18.9472C20.353 19.458 19.978 20.1393 19.3646 20.1393C19.247 20.1393 19.0917 20.1097 19.0195 20.0734C18.9473 20.0372 18.0544 19.1759 17.0353 18.1594L15.1824 16.3111L15.7431 15.7466L16.3037 15.182L18.1029 16.9734C19.0925 17.9587 19.9555 18.8469 20.0208 18.9472Z" fill="#5E5E5E"/>
</svg>
