<svg width="25" height="27" viewBox="0 0 25 27" fill="none" xmlns="http://www.w3.org/2000/svg">
<path fill-rule="evenodd" clip-rule="evenodd" d="M9.3484 1.95752L8.97899 3.91504L8.82097 3.98112C8.18447 4.24731 7.35738 4.75202 6.68593 5.28393C6.54137 5.39847 6.41083 5.49147 6.39585 5.49061C6.38087 5.48972 5.69814 5.24663 4.87864 4.95039C3.41719 4.42211 2.76882 4.19707 2.75793 4.21427C2.75492 4.21903 2.65901 4.39738 2.54479 4.61062C2.43055 4.82386 1.95726 5.68374 1.49302 6.52147C0.510657 8.29414 0.000105529 9.22824 4.32874e-08 9.25303C-0.000131814 9.28388 0.300925 9.56812 1.56499 10.7306C2.67475 11.7512 2.79801 11.8728 2.7862 11.9353C2.57219 13.067 2.57219 13.9058 2.7862 15.0375C2.79801 15.0999 2.67583 15.2206 1.57765 16.2311C-0.035918 17.7157 0.00435141 17.6779 0.0020571 17.7097C-0.000395452 17.7436 0.37727 18.4378 1.54629 20.5483C2.03986 21.4393 2.51307 22.2992 2.59791 22.4591C2.68274 22.619 2.75469 22.7538 2.75777 22.7585C2.76895 22.7757 3.41598 22.5511 4.87864 22.0224C5.69814 21.7262 6.38087 21.4831 6.39585 21.4822C6.41083 21.4813 6.54137 21.5743 6.68593 21.6889C7.35733 22.2208 8.18449 22.7255 8.82086 22.9916L8.97878 23.0577L9.34721 25.0085C9.54985 26.0815 9.72799 26.9685 9.7431 26.9797C9.75818 26.9909 10.9988 27 12.5 27C14.0012 27 15.2417 26.9909 15.2567 26.9797C15.2716 26.9685 15.4498 26.0819 15.6525 25.0095L16.021 23.0597L16.245 22.9629C16.9114 22.6747 17.807 22.1131 18.4646 21.571L18.5879 21.4693L19.0711 21.6435C19.3369 21.7394 19.9401 21.9574 20.4114 22.128C21.3724 22.4759 22.2329 22.7724 22.2419 22.7589C22.2452 22.7539 22.3173 22.619 22.4021 22.4591C22.4869 22.2992 22.9601 21.4393 23.4537 20.5483C24.5162 18.63 24.9999 17.7447 25 17.7177C25.0001 17.6828 24.5334 17.2452 22.7899 15.6461C22.2692 15.1685 22.203 15.0985 22.2142 15.0372C22.4291 13.8661 22.429 13.101 22.2142 11.9356C22.2035 11.8775 22.2305 11.8396 22.3827 11.7002C24.4823 9.77547 25.0001 9.29174 25 9.2551C24.9999 9.22813 24.5162 8.34277 23.4537 6.42455C22.9601 5.53351 22.4869 4.67362 22.4021 4.51369C22.3173 4.35376 22.2452 4.21886 22.2419 4.21393C22.2329 4.20037 21.3724 4.49694 20.4114 4.84479C19.9401 5.01544 19.3369 5.23345 19.0711 5.32927L18.5879 5.50346L18.4576 5.39534C17.8106 4.85828 16.8952 4.28898 16.1788 3.97818L16.0206 3.90953L15.6514 1.95475L15.2822 0H12.5H9.71781L9.3484 1.95752ZM11.3576 2.07175C11.3332 2.07668 11.3133 2.09139 11.3133 2.10443C11.3133 2.13531 10.8845 4.46883 10.7875 4.96612C10.7464 5.17687 10.7025 5.35912 10.6899 5.37111C10.6774 5.38313 10.4773 5.45835 10.2452 5.53827C8.90159 6.00097 7.99768 6.55653 7.00751 7.52827L6.72335 7.80712L5.76805 7.46466C5.24262 7.27629 4.55456 7.02802 4.23903 6.91295L3.66537 6.70372L3.62821 6.76493C3.50859 6.96197 2.50521 8.78199 2.50521 8.80193C2.50521 8.82832 2.56349 8.88426 3.67505 9.92471C4.09367 10.3165 4.54816 10.7317 4.68508 10.8474C4.84916 10.986 4.92907 11.0712 4.91949 11.0974C4.9115 11.1192 4.86957 11.2825 4.82627 11.4601C4.50981 12.7591 4.50981 14.2137 4.82627 15.5127C4.86957 15.6903 4.91142 15.8534 4.91931 15.8749C4.92864 15.9004 4.83914 15.9946 4.66219 16.1455C4.29736 16.4565 2.50521 18.1386 2.50521 18.17C2.50521 18.1905 3.50553 20.0058 3.62821 20.2079L3.66537 20.2691L4.23903 20.0599C4.55456 19.9448 5.24262 19.6965 5.76805 19.5081L6.72335 19.1657L7.00751 19.4446C7.99356 20.4126 8.90596 20.9734 10.2452 21.4345C10.4773 21.5145 10.6774 21.5897 10.6899 21.6017C10.7174 21.628 10.7919 22.0058 11.0883 23.6222C11.2125 24.3 11.3196 24.8702 11.3261 24.8892C11.3435 24.9398 13.6565 24.9398 13.6739 24.8892C13.6804 24.8702 13.7875 24.3 13.9117 23.6222C14.1727 22.1989 14.2821 21.6309 14.2984 21.6137C14.3048 21.607 14.5465 21.5153 14.8356 21.4099C15.4659 21.1801 15.6097 21.1186 16.0156 20.9058C16.4114 20.6982 16.5058 20.6407 16.8829 20.3771C17.2586 20.1144 17.6157 19.8143 17.9917 19.4454C18.2539 19.188 18.2804 19.1691 18.3477 19.1916C18.5895 19.2721 19.3321 19.5391 20.7612 20.0594L21.3351 20.2684L21.372 20.2075C21.497 20.0016 22.4948 18.1903 22.4948 18.1694C22.4948 18.1459 20.9074 16.6465 20.3423 16.1361L20.1024 15.9194L20.1927 15.4714C20.3324 14.7782 20.3846 14.3527 20.4021 13.7633C20.427 12.9269 20.3555 12.2063 20.1737 11.4601C20.1304 11.2825 20.0885 11.1192 20.0805 11.0974C20.0709 11.0711 20.1537 10.9836 20.3244 10.8396C20.6641 10.5529 22.4948 8.83499 22.4948 8.80281C22.4948 8.78229 21.4948 6.96753 21.372 6.76529L21.3351 6.70444L20.7612 6.91348C18.9196 7.58419 18.6839 7.66893 18.3477 7.7812C18.2803 7.80368 18.254 7.78494 17.9917 7.5273C17.0969 6.6487 16.1743 6.05412 15.082 5.65203C14.873 5.5751 14.6104 5.47917 14.4984 5.43888C14.3765 5.39501 14.2898 5.34746 14.2822 5.32043C14.2656 5.26139 14.0181 3.94171 13.8295 2.90746C13.7476 2.45814 13.6775 2.0869 13.6738 2.08247C13.6643 2.07123 11.4119 2.06082 11.3576 2.07175ZM11.7821 8.34919C11.0648 8.4711 10.3845 8.74352 9.81011 9.13896C8.68592 9.9128 7.91287 11.1187 7.64261 12.5199C7.58926 12.7965 7.58172 12.9162 7.58172 13.4864C7.58172 14.0566 7.58926 14.1763 7.64261 14.4529C8.04947 16.5625 9.56013 18.1493 11.577 18.5856C11.8457 18.6438 11.951 18.6513 12.5 18.6513C13.043 18.6513 13.157 18.6433 13.4204 18.5873C14.203 18.4208 14.9962 18.0381 15.5723 17.549C16.3205 16.9137 16.8992 16.039 17.1929 15.0999C17.3806 14.4995 17.4183 14.2301 17.4183 13.4864C17.4183 12.7427 17.3806 12.4733 17.1929 11.8729C16.8992 10.9338 16.3205 10.0591 15.5723 9.42381C15 8.93793 14.2043 8.55263 13.4347 8.38882C13.0634 8.30976 12.1439 8.28771 11.7821 8.34919ZM11.8935 10.4373C11.297 10.575 10.8253 10.8416 10.4051 11.2783C9.78556 11.9222 9.48266 12.8012 9.55114 13.7564C9.62767 14.8237 10.2513 15.7906 11.1814 16.2841C11.3568 16.3771 11.7153 16.4989 11.9535 16.5463C12.2232 16.6001 12.7773 16.6003 13.0436 16.5468C13.937 16.3673 14.641 15.8356 15.0965 14.9961C15.4868 14.277 15.5674 13.2961 15.3042 12.4686C15.1201 11.8896 14.7182 11.318 14.2405 10.9556C13.9936 10.7682 13.573 10.56 13.2735 10.4768C12.9175 10.3779 12.2352 10.3584 11.8935 10.4373Z" fill="#6B6B6B"/>
</svg>
