<svg width="67" height="65" viewBox="0 0 67 65" fill="none" xmlns="http://www.w3.org/2000/svg">
<rect width="67" height="65" rx="8" fill="#0A0A0A"/>
<path fill-rule="evenodd" clip-rule="evenodd" d="M21.7434 13.1137C20.4278 13.3954 19.1002 14.4117 18.5158 15.5847C17.9604 16.6991 18.0006 15.3778 18.0006 32.492C18.0006 45.994 18.015 47.977 18.1159 48.3743C18.5509 50.0879 20.042 51.5116 21.7816 51.8746C22.583 52.0418 44.4295 52.0418 45.2309 51.8746C46.974 51.511 48.4683 50.0814 48.8977 48.3668C48.9989 47.9625 49.0107 46.3116 48.9934 35.0232L48.9737 22.1408L48.6299 21.7877C47.5753 20.7039 39.7214 13.2406 39.5178 13.1285C39.2909 13.0037 38.7333 12.9956 30.7577 13.0013C23.7736 13.0063 22.1505 13.0265 21.7434 13.1137ZM22.2288 15.2067C21.4087 15.369 20.5904 16.0639 20.2962 16.8479C20.1399 17.2644 20.1393 17.3195 20.1393 32.492C20.1393 47.6645 20.1399 47.7196 20.2962 48.1362C20.5151 48.7196 21.0294 49.2631 21.6513 49.5684L22.1602 49.8182L33.1608 49.8404C40.8829 49.8559 44.3072 49.8377 44.6503 49.7791C45.5373 49.6276 46.214 49.1362 46.6107 48.3555L46.8349 47.9143L46.855 35.7859L46.875 23.6576H44.5184C42.4217 23.6576 42.0968 23.641 41.5719 23.5071C39.9895 23.1036 38.7934 21.9835 38.1947 20.3446C38.075 20.0171 38.0499 19.628 38.0151 17.5648L37.9746 15.1658L30.26 15.1549C26.017 15.149 22.4029 15.1723 22.2288 15.2067ZM40.1533 18.0345C40.1549 19.314 40.1698 19.4662 40.3305 19.8557C40.5595 20.411 40.8497 20.782 41.2739 21.0621C41.9081 21.481 42.188 21.5307 43.7854 21.5077L45.2309 21.487L43.336 19.6592C42.2937 18.6539 41.1508 17.5629 40.7962 17.2348L40.1515 16.6383L40.1533 18.0345ZM25.5089 27.3095C24.8621 27.7043 24.877 28.687 25.5364 29.1179C25.7349 29.2476 26.1667 29.2564 33.2601 29.2757C38.2537 29.2894 40.8719 29.2699 41.0666 29.2176C41.2399 29.171 41.4562 29.0293 41.5958 28.8707C41.7982 28.6408 41.8319 28.5431 41.8319 28.1853C41.8319 27.8162 41.8016 27.735 41.5705 27.4834L41.309 27.199L33.5312 27.1796C25.9226 27.1606 25.7481 27.1635 25.5089 27.3095ZM25.6617 33.3267C25.3522 33.5148 25.1806 33.8432 25.1806 34.2472C25.1806 34.6664 25.3758 34.9753 25.7568 35.1592C26.0614 35.3063 26.252 35.3099 33.571 35.3099C41.6808 35.3099 41.3566 35.3261 41.7474 34.9034C41.9896 34.6415 42.052 34.0614 41.8749 33.7198C41.8052 33.5854 41.6381 33.4084 41.5035 33.3267C41.2653 33.1819 41.0617 33.178 33.5826 33.178C26.1035 33.178 25.8999 33.1819 25.6617 33.3267ZM25.6617 39.3433C25.3522 39.5314 25.1806 39.8597 25.1806 40.2638C25.1806 40.6728 25.377 41 25.7313 41.1814C26.0044 41.3212 26.2902 41.3265 33.5438 41.3265C41.6831 41.3265 41.3565 41.3427 41.7474 40.92C41.9896 40.658 42.052 40.0779 41.8749 39.7364C41.8052 39.6019 41.6381 39.425 41.5035 39.3433C41.2653 39.1985 41.0617 39.1946 33.5826 39.1946C26.1035 39.1946 25.8999 39.1985 25.6617 39.3433Z" fill="white"/>
</svg>
