<svg width="57" height="57" viewBox="0 0 57 57" fill="none" xmlns="http://www.w3.org/2000/svg">
<path fill-rule="evenodd" clip-rule="evenodd" d="M16.7434 9.11369C15.4278 9.3954 14.1002 10.4117 13.5158 11.5847C12.9604 12.6991 13.0006 11.3778 13.0006 28.492C13.0006 41.994 13.015 43.977 13.1159 44.3743C13.5509 46.0879 15.042 47.5116 16.7816 47.8746C17.583 48.0418 39.4295 48.0418 40.2309 47.8746C41.974 47.511 43.4683 46.0814 43.8977 44.3668C43.9989 43.9625 44.0107 42.3116 43.9934 31.0232L43.9737 18.1408L43.6299 17.7877C42.5753 16.7039 34.7214 9.24057 34.5178 9.12854C34.2909 9.00372 33.7333 8.99564 25.7577 9.00128C18.7736 9.00631 17.1505 9.02649 16.7434 9.11369ZM17.2288 11.2067C16.4087 11.369 15.5904 12.0639 15.2962 12.8479C15.1399 13.2644 15.1393 13.3195 15.1393 28.492C15.1393 43.6645 15.1399 43.7196 15.2962 44.1362C15.5151 44.7196 16.0294 45.2631 16.6513 45.5684L17.1602 45.8182L28.1608 45.8404C35.8829 45.8559 39.3072 45.8377 39.6503 45.7791C40.5373 45.6276 41.214 45.1362 41.6107 44.3555L41.8349 43.9143L41.855 31.7859L41.875 19.6576H39.5184C37.4217 19.6576 37.0968 19.641 36.5719 19.5071C34.9895 19.1036 33.7934 17.9835 33.1947 16.3446C33.075 16.0171 33.0499 15.628 33.0151 13.5648L32.9746 11.1658L25.26 11.1549C21.017 11.149 17.4029 11.1723 17.2288 11.2067ZM35.1533 14.0345C35.1549 15.314 35.1698 15.4662 35.3305 15.8557C35.5595 16.411 35.8497 16.782 36.2739 17.0621C36.9081 17.481 37.188 17.5307 38.7854 17.5077L40.2309 17.487L38.336 15.6592C37.2937 14.6539 36.1508 13.5629 35.7962 13.2348L35.1515 12.6383L35.1533 14.0345ZM20.5089 23.3095C19.8621 23.7043 19.877 24.687 20.5364 25.1179C20.7349 25.2476 21.1667 25.2564 28.2601 25.2757C33.2537 25.2894 35.8719 25.2699 36.0666 25.2176C36.2399 25.171 36.4562 25.0293 36.5958 24.8707C36.7982 24.6408 36.8319 24.5431 36.8319 24.1853C36.8319 23.8162 36.8016 23.735 36.5705 23.4834L36.309 23.199L28.5312 23.1796C20.9226 23.1606 20.7481 23.1635 20.5089 23.3095ZM20.6617 29.3267C20.3522 29.5148 20.1806 29.8432 20.1806 30.2472C20.1806 30.6664 20.3758 30.9753 20.7568 31.1592C21.0614 31.3063 21.252 31.3099 28.571 31.3099C36.6808 31.3099 36.3566 31.3261 36.7474 30.9034C36.9896 30.6415 37.052 30.0614 36.8749 29.7198C36.8052 29.5854 36.6381 29.4084 36.5035 29.3267C36.2653 29.1819 36.0617 29.178 28.5826 29.178C21.1035 29.178 20.8999 29.1819 20.6617 29.3267ZM20.6617 35.3433C20.3522 35.5314 20.1806 35.8597 20.1806 36.2638C20.1806 36.6728 20.377 37 20.7313 37.1814C21.0044 37.3212 21.2902 37.3265 28.5438 37.3265C36.6831 37.3265 36.3565 37.3427 36.7474 36.92C36.9896 36.658 37.052 36.0779 36.8749 35.7364C36.8052 35.6019 36.6381 35.425 36.5035 35.3433C36.2653 35.1985 36.0617 35.1946 28.5826 35.1946C21.1035 35.1946 20.8999 35.1985 20.6617 35.3433Z" fill="black"/>
</svg>
