<svg width="19" height="24" viewBox="0 0 19 24" fill="none" xmlns="http://www.w3.org/2000/svg">
<path fill-rule="evenodd" clip-rule="evenodd" d="M2.29433 0.0699634C1.48799 0.243325 0.674343 0.868768 0.316115 1.59057C-0.024276 2.27638 0.000395466 1.46323 0.000395466 11.9951C0.000395466 20.304 0.00919662 21.5243 0.0710391 21.7688C0.33765 22.8233 1.25152 23.6995 2.31773 23.9228C2.80892 24.0257 16.1987 24.0257 16.6899 23.9228C17.7582 23.6991 18.6741 22.8193 18.9373 21.7642C18.9993 21.5154 19.0066 20.4995 18.996 13.5527L18.9838 5.62513L18.7732 5.40781C18.1268 4.74089 13.3131 0.148044 13.1883 0.0791025C13.0493 0.00228715 12.7075 -0.00268077 7.81924 0.000787404C3.53867 0.00388064 2.54385 0.0163005 2.29433 0.0699634ZM2.59184 1.35797C2.08918 1.45784 1.58766 1.88551 1.40737 2.36791C1.31154 2.62427 1.31121 2.65816 1.31121 11.9951C1.31121 21.332 1.31154 21.3659 1.40737 21.6223C1.54154 21.9813 1.8567 22.3158 2.23787 22.5036L2.5498 22.6574L9.29213 22.671C14.025 22.6806 16.1238 22.6693 16.334 22.6333C16.8777 22.5401 17.2924 22.2377 17.5356 21.7572L17.673 21.4857L17.6853 14.0221L17.6976 6.55849H16.2532C14.9681 6.55849 14.769 6.54828 14.4473 6.46593C13.4774 6.21758 12.7444 5.52831 12.3774 4.51977C12.3041 4.31824 12.2887 4.07875 12.2673 2.80912L12.2425 1.3328L7.51419 1.3261C4.91362 1.32244 2.69857 1.33678 2.59184 1.35797ZM13.5778 3.09815C13.5788 3.88556 13.5879 3.9792 13.6864 4.21888C13.8268 4.56059 14.0047 4.78893 14.2647 4.96131C14.6534 5.21908 14.8249 5.24963 15.8039 5.23553L16.6899 5.22278L15.5285 4.09797C14.8897 3.47932 14.1892 2.80795 13.9719 2.60604L13.5767 2.23893L13.5778 3.09815ZM4.60226 8.80587C4.20578 9.04883 4.21491 9.65351 4.61906 9.91869C4.74073 9.9985 5.00538 10.0039 9.35299 10.0158C12.4136 10.0242 14.0182 10.0122 14.1376 9.98004C14.2438 9.9514 14.3764 9.86418 14.4619 9.7666C14.586 9.62511 14.6067 9.56498 14.6067 9.3448C14.6067 9.11768 14.5881 9.06767 14.4464 8.91287L14.2862 8.73782L9.51913 8.72592C4.85576 8.71425 4.74883 8.71598 4.60226 8.80587ZM4.69589 12.5088C4.50619 12.6245 4.401 12.8266 4.401 13.0752C4.401 13.3331 4.52066 13.5233 4.75417 13.6364C4.94087 13.7269 5.05767 13.7292 9.54353 13.7292C14.5141 13.7292 14.3153 13.7391 14.5549 13.479C14.7033 13.3178 14.7416 12.9608 14.633 12.7506C14.5903 12.6679 14.4878 12.559 14.4054 12.5088C14.2594 12.4196 14.1346 12.4172 9.55064 12.4172C4.96666 12.4172 4.8419 12.4196 4.69589 12.5088ZM4.69589 16.2113C4.50619 16.327 4.401 16.5291 4.401 16.7777C4.401 17.0294 4.52136 17.2308 4.73853 17.3424C4.9059 17.4284 5.08108 17.4317 9.52686 17.4317C14.5155 17.4317 14.3153 17.4417 14.5549 17.1815C14.7033 17.0203 14.7416 16.6633 14.633 16.4531C14.5903 16.3704 14.4878 16.2616 14.4054 16.2113C14.2594 16.1221 14.1346 16.1197 9.55064 16.1197C4.96666 16.1197 4.8419 16.1221 4.69589 16.2113Z" fill="#EB5B1D"/>
</svg>
