<svg width="240" height="118" viewBox="0 0 240 118" fill="none" xmlns="http://www.w3.org/2000/svg">
<path d="M4.76 112.281V100.181L5.5 100.921H0.3V98.2812H12.44V100.921H7.24L7.96 100.181V112.281H4.76ZM15.2498 116.321C14.6898 116.321 14.1365 116.235 13.5898 116.061C13.0432 115.888 12.5965 115.648 12.2498 115.341L13.3898 113.121C13.6298 113.335 13.9032 113.501 14.2098 113.621C14.5298 113.741 14.8432 113.801 15.1498 113.801C15.5898 113.801 15.9365 113.695 16.1898 113.481C16.4565 113.281 16.6965 112.941 16.9098 112.461L17.4698 111.141L17.7098 110.801L21.5698 101.521H24.5698L19.7098 112.941C19.3632 113.808 18.9632 114.488 18.5098 114.981C18.0698 115.475 17.5765 115.821 17.0298 116.021C16.4965 116.221 15.9032 116.321 15.2498 116.321ZM17.0898 112.701L12.2898 101.521H15.5098L19.2298 110.521L17.0898 112.701ZM28.6336 112.281V103.361L29.3336 104.081H24.9936V101.521H35.3736V104.081H31.0336L31.7336 103.361V112.281H28.6336ZM43.1008 112.281V101.521H53.8008V112.281H50.6808V103.381L51.3808 104.081H45.5008L46.2008 103.381V112.281H43.1008ZM62.0322 112.441C60.8855 112.441 59.8655 112.201 58.9722 111.721C58.0922 111.241 57.3922 110.588 56.8722 109.761C56.3655 108.921 56.1122 107.968 56.1122 106.901C56.1122 105.821 56.3655 104.868 56.8722 104.041C57.3922 103.201 58.0922 102.548 58.9722 102.081C59.8655 101.601 60.8855 101.361 62.0322 101.361C63.1655 101.361 64.1789 101.601 65.0722 102.081C65.9655 102.548 66.6655 103.195 67.1722 104.021C67.6789 104.848 67.9322 105.808 67.9322 106.901C67.9322 107.968 67.6789 108.921 67.1722 109.761C66.6655 110.588 65.9655 111.241 65.0722 111.721C64.1789 112.201 63.1655 112.441 62.0322 112.441ZM62.0322 109.881C62.5522 109.881 63.0189 109.761 63.4322 109.521C63.8455 109.281 64.1722 108.941 64.4122 108.501C64.6522 108.048 64.7722 107.515 64.7722 106.901C64.7722 106.275 64.6522 105.741 64.4122 105.301C64.1722 104.861 63.8455 104.521 63.4322 104.281C63.0189 104.041 62.5522 103.921 62.0322 103.921C61.5122 103.921 61.0455 104.041 60.6322 104.281C60.2189 104.521 59.8855 104.861 59.6322 105.301C59.3922 105.741 59.2722 106.275 59.2722 106.901C59.2722 107.515 59.3922 108.048 59.6322 108.501C59.8855 108.941 60.2189 109.281 60.6322 109.521C61.0455 109.761 61.5122 109.881 62.0322 109.881ZM77.8981 112.281L74.2981 107.181L76.8381 105.681L81.5781 112.281H77.8981ZM70.2781 112.281V101.521H73.3981V112.281H70.2781ZM72.4781 108.201V105.701H76.2381V108.201H72.4781ZM77.1381 107.261L74.2181 106.941L77.9981 101.521H81.3181L77.1381 107.261ZM89.5548 112.281V110.181L89.3548 109.721V105.961C89.3548 105.295 89.1482 104.775 88.7348 104.401C88.3348 104.028 87.7148 103.841 86.8748 103.841C86.3015 103.841 85.7348 103.935 85.1748 104.121C84.6282 104.295 84.1615 104.535 83.7748 104.841L82.6548 102.661C83.2415 102.248 83.9482 101.928 84.7748 101.701C85.6015 101.475 86.4415 101.361 87.2948 101.361C88.9348 101.361 90.2082 101.748 91.1148 102.521C92.0215 103.295 92.4748 104.501 92.4748 106.141V112.281H89.5548ZM86.2748 112.441C85.4348 112.441 84.7148 112.301 84.1148 112.021C83.5148 111.728 83.0548 111.335 82.7348 110.841C82.4148 110.348 82.2548 109.795 82.2548 109.181C82.2548 108.541 82.4082 107.981 82.7148 107.501C83.0348 107.021 83.5348 106.648 84.2148 106.381C84.8948 106.101 85.7815 105.961 86.8748 105.961H89.7348V107.781H87.2148C86.4815 107.781 85.9748 107.901 85.6948 108.141C85.4282 108.381 85.2948 108.681 85.2948 109.041C85.2948 109.441 85.4482 109.761 85.7548 110.001C86.0748 110.228 86.5082 110.341 87.0548 110.341C87.5748 110.341 88.0415 110.221 88.4548 109.981C88.8682 109.728 89.1682 109.361 89.3548 108.881L89.8348 110.321C89.6082 111.015 89.1948 111.541 88.5948 111.901C87.9948 112.261 87.2215 112.441 86.2748 112.441ZM101.249 112.281V101.521H104.349V105.721H109.029V101.521H112.149V112.281H109.029V108.261H104.349V112.281H101.249ZM115.336 112.281V101.521H118.436V107.921L123.676 101.521H126.536V112.281H123.436V105.881L118.216 112.281H115.336ZM136.515 108.161C136.075 108.401 135.588 108.595 135.055 108.741C134.522 108.888 133.935 108.961 133.295 108.961C131.882 108.961 130.795 108.641 130.035 108.001C129.275 107.348 128.895 106.315 128.895 104.901V101.521H132.015V104.701C132.015 105.368 132.188 105.848 132.535 106.141C132.882 106.421 133.368 106.561 133.995 106.561C134.448 106.561 134.882 106.508 135.295 106.401C135.722 106.295 136.128 106.141 136.515 105.941V108.161ZM136.295 112.281V101.521H139.415V112.281H136.295ZM147.871 112.441C146.644 112.441 145.564 112.201 144.631 111.721C143.711 111.241 142.998 110.588 142.491 109.761C141.984 108.921 141.731 107.968 141.731 106.901C141.731 105.821 141.978 104.868 142.471 104.041C142.978 103.201 143.664 102.548 144.531 102.081C145.398 101.601 146.378 101.361 147.471 101.361C148.524 101.361 149.471 101.588 150.311 102.041C151.164 102.481 151.838 103.121 152.331 103.961C152.824 104.788 153.071 105.781 153.071 106.941C153.071 107.061 153.064 107.201 153.051 107.361C153.038 107.508 153.024 107.648 153.011 107.781H144.271V105.961H151.371L150.171 106.501C150.171 105.941 150.058 105.455 149.831 105.041C149.604 104.628 149.291 104.308 148.891 104.081C148.491 103.841 148.024 103.721 147.491 103.721C146.958 103.721 146.484 103.841 146.071 104.081C145.671 104.308 145.358 104.635 145.131 105.061C144.904 105.475 144.791 105.968 144.791 106.541V107.021C144.791 107.608 144.918 108.128 145.171 108.581C145.438 109.021 145.804 109.361 146.271 109.601C146.751 109.828 147.311 109.941 147.951 109.941C148.524 109.941 149.024 109.855 149.451 109.681C149.891 109.508 150.291 109.248 150.651 108.901L152.311 110.701C151.818 111.261 151.198 111.695 150.451 112.001C149.704 112.295 148.844 112.441 147.871 112.441ZM155.663 112.281V101.521H164.283V104.081H158.063L158.763 103.401V112.281H155.663ZM170.727 112.441C169.58 112.441 168.56 112.201 167.667 111.721C166.787 111.241 166.087 110.588 165.567 109.761C165.06 108.921 164.807 107.968 164.807 106.901C164.807 105.821 165.06 104.868 165.567 104.041C166.087 103.201 166.787 102.548 167.667 102.081C168.56 101.601 169.58 101.361 170.727 101.361C171.86 101.361 172.873 101.601 173.767 102.081C174.66 102.548 175.36 103.195 175.867 104.021C176.373 104.848 176.627 105.808 176.627 106.901C176.627 107.968 176.373 108.921 175.867 109.761C175.36 110.588 174.66 111.241 173.767 111.721C172.873 112.201 171.86 112.441 170.727 112.441ZM170.727 109.881C171.247 109.881 171.713 109.761 172.127 109.521C172.54 109.281 172.867 108.941 173.107 108.501C173.347 108.048 173.467 107.515 173.467 106.901C173.467 106.275 173.347 105.741 173.107 105.301C172.867 104.861 172.54 104.521 172.127 104.281C171.713 104.041 171.247 103.921 170.727 103.921C170.207 103.921 169.74 104.041 169.327 104.281C168.913 104.521 168.58 104.861 168.327 105.301C168.087 105.741 167.967 106.275 167.967 106.901C167.967 107.515 168.087 108.048 168.327 108.501C168.58 108.941 168.913 109.281 169.327 109.521C169.74 109.761 170.207 109.881 170.727 109.881ZM184.837 112.281V101.521H187.937V105.721H192.617V101.521H195.737V112.281H192.617V108.261H187.937V112.281H184.837ZM204.183 112.441C202.957 112.441 201.877 112.201 200.943 111.721C200.023 111.241 199.31 110.588 198.803 109.761C198.297 108.921 198.043 107.968 198.043 106.901C198.043 105.821 198.29 104.868 198.783 104.041C199.29 103.201 199.977 102.548 200.843 102.081C201.71 101.601 202.69 101.361 203.783 101.361C204.837 101.361 205.783 101.588 206.623 102.041C207.477 102.481 208.15 103.121 208.643 103.961C209.137 104.788 209.383 105.781 209.383 106.941C209.383 107.061 209.377 107.201 209.363 107.361C209.35 107.508 209.337 107.648 209.323 107.781H200.583V105.961H207.683L206.483 106.501C206.483 105.941 206.37 105.455 206.143 105.041C205.917 104.628 205.603 104.308 205.203 104.081C204.803 103.841 204.337 103.721 203.803 103.721C203.27 103.721 202.797 103.841 202.383 104.081C201.983 104.308 201.67 104.635 201.443 105.061C201.217 105.475 201.103 105.968 201.103 106.541V107.021C201.103 107.608 201.23 108.128 201.483 108.581C201.75 109.021 202.117 109.361 202.583 109.601C203.063 109.828 203.623 109.941 204.263 109.941C204.837 109.941 205.337 109.855 205.763 109.681C206.203 109.508 206.603 109.248 206.963 108.901L208.623 110.701C208.13 111.261 207.51 111.695 206.763 112.001C206.017 112.295 205.157 112.441 204.183 112.441ZM213.904 112.281V103.361L214.604 104.081H210.264V101.521H220.644V104.081H216.304L217.004 103.361V112.281H213.904ZM229.491 105.261C228.958 105.261 228.498 105.081 228.111 104.721C227.738 104.348 227.551 103.875 227.551 103.301C227.551 102.728 227.738 102.268 228.111 101.921C228.498 101.561 228.958 101.381 229.491 101.381C230.038 101.381 230.498 101.561 230.871 101.921C231.244 102.268 231.431 102.728 231.431 103.301C231.431 103.875 231.244 104.348 230.871 104.721C230.498 105.081 230.038 105.261 229.491 105.261ZM229.491 112.441C228.958 112.441 228.498 112.261 228.111 111.901C227.738 111.528 227.551 111.055 227.551 110.481C227.551 109.908 227.738 109.448 228.111 109.101C228.498 108.741 228.958 108.561 229.491 108.561C230.038 108.561 230.498 108.741 230.871 109.101C231.244 109.448 231.431 109.908 231.431 110.481C231.431 111.055 231.244 111.528 230.871 111.901C230.498 112.261 230.038 112.441 229.491 112.441ZM236.265 116.161C235.465 114.948 234.845 113.548 234.405 111.961C233.979 110.361 233.765 108.641 233.765 106.801C233.765 104.961 233.979 103.241 234.405 101.641C234.845 100.028 235.465 98.6279 236.265 97.4412H239.245C238.405 98.9479 237.792 100.468 237.405 102.001C237.019 103.521 236.825 105.121 236.825 106.801C236.825 108.481 237.019 110.088 237.405 111.621C237.792 113.141 238.405 114.655 239.245 116.161H236.265Z" fill="#949494"/>
<path fill-rule="evenodd" clip-rule="evenodd" d="M108.326 0.0756054C108.145 0.15296 106.312 1.87714 104.253 3.90734C102.193 5.93733 100.441 7.62653 100.359 7.66091C100.276 7.69529 99.4865 7.01769 98.6038 6.15521C91.8709 -0.4229 91.9015 -0.399913 91.0791 0.502553C90.7189 0.897919 90.7149 1.16876 90.7149 25.4878V50.0732L85.8426 50.0762C82.2819 50.0784 80.8477 50.1472 80.5149 50.3318L80.0595 50.5845L80.0105 55.1326C79.9559 60.2062 80.0901 61.2068 81.1149 63.3653C81.8979 65.0146 83.9608 67.235 85.4479 68.0292C87.8212 69.2968 87.2977 69.2618 103.857 69.2618H118.926L119.21 68.8175C119.585 68.2303 119.567 67.8075 119.145 67.2352L118.797 66.7633L103.527 66.6634L88.2559 66.5634L87.0248 65.9236C85.316 65.0351 83.9434 63.5538 83.1046 61.6927L82.4274 60.19L82.3676 56.4308L82.3079 52.6717H97.518C114.494 52.6717 113.377 52.7688 113.265 51.3023C113.224 50.7686 113.091 50.5169 112.754 50.3306C112.406 50.1382 110.044 50.0784 102.691 50.0762L93.0827 50.0732V27.2749C93.0827 9.08807 93.1288 4.50758 93.3104 4.62931C93.4357 4.71346 94.9533 6.1578 96.6831 7.83921C98.916 10.0097 99.9577 10.8964 100.274 10.8964C100.519 10.8964 101.03 10.605 101.409 10.249C102.171 9.53321 107.233 4.56535 108.132 3.64989L108.702 3.07043L112.659 6.98352C115.402 9.69611 116.746 10.8964 117.039 10.8964C117.547 10.8964 117.745 10.7217 122.09 6.43744L125.506 3.06883L129.011 6.53758C133.163 10.6461 133.447 10.8964 133.965 10.8964C134.221 10.8964 135.58 9.7161 137.766 7.59595L141.168 4.29531V16.4037C141.168 24.3682 141.233 28.6445 141.357 28.8989C141.494 29.18 141.74 29.2855 142.257 29.2855C143.606 29.2855 143.536 30.0766 143.536 14.7405V1.08401L143.089 0.593499C142.235 -0.343546 142.444 -0.482663 137.477 4.32669C135.558 6.18419 133.927 7.6801 133.851 7.65112C133.775 7.62214 132.022 5.93434 129.957 3.90054C127.891 1.86674 126.044 0.138168 125.852 0.0592149C125.661 -0.0197383 125.347 -0.0197383 125.156 0.0592149C124.964 0.138168 123.117 1.86674 121.05 3.90054C118.983 5.93434 117.212 7.59835 117.115 7.59835C117.017 7.59835 115.234 5.92394 113.153 3.87735C111.072 1.83077 109.209 0.106387 109.013 0.0456228C108.817 -0.0153411 108.508 -0.00174882 108.326 0.0756054ZM103.038 20.0568C102.629 20.5525 102.658 21.4042 103.101 21.8899C103.454 22.2775 103.708 22.2897 111.388 22.2897C119.068 22.2897 119.322 22.2775 119.675 21.8899C120.112 21.4106 120.143 20.7414 119.756 20.1355L119.473 19.6912H111.406C103.822 19.6912 103.321 19.7132 103.038 20.0568ZM103.556 28.0239C103.056 28.1558 102.736 28.6567 102.736 29.3095C102.736 30.5278 102.353 30.4848 113.209 30.4848C121.967 30.4848 123.143 30.4486 123.396 30.1708C123.753 29.7798 123.766 28.8881 123.424 28.3742C123.174 27.9993 122.842 27.9853 113.543 27.9569C108.25 27.9407 103.756 27.9709 103.556 28.0239ZM133.609 30.5074C125.668 31.2879 118.932 37.4289 116.686 45.9348C115.399 50.8088 115.787 56.3141 117.745 60.9644C120.259 66.9358 125.522 71.5305 131.4 72.8839C133.322 73.3266 136.979 73.4166 138.814 73.0666C145.717 71.7492 151.497 66.4599 153.895 59.2678C154.797 56.5604 154.912 55.7281 154.911 51.8721C154.91 47.2421 154.6 45.731 152.88 41.978C150.035 35.7715 143.816 31.0681 137.799 30.5733C137.097 30.5158 136.237 30.441 135.886 30.4074C135.535 30.3737 134.511 30.4186 133.609 30.5074ZM139.003 33.3975C145.148 34.7671 150.359 40.1545 152.136 46.975C152.494 48.3504 152.552 49.0356 152.552 51.8721C152.552 55.7169 152.27 57.1412 150.911 60.1672C146.729 69.4747 136.327 73.3912 127.963 68.8067C124.607 66.967 122.057 64.2354 120.318 60.6156C114.537 48.5847 121.855 34.1766 134.338 33.0149C135.431 32.9132 137.645 33.0949 139.003 33.3975ZM103.038 36.6469C102.629 37.1427 102.658 37.9944 103.101 38.4801C103.448 38.8618 103.708 38.8798 108.838 38.8798C113.968 38.8798 114.228 38.8618 114.575 38.4801C115.031 37.9806 115.046 37.0487 114.607 36.6122C114.312 36.3197 113.638 36.2814 108.806 36.2814C103.741 36.2814 103.317 36.3081 103.038 36.6469ZM138.556 46.6182L135.56 49.9595L132.467 46.7182C129.847 43.9732 129.288 43.4771 128.815 43.4771C128.192 43.4771 127.69 44.0722 127.69 44.8099C127.69 45.1203 128.61 46.2495 130.741 48.5523L133.791 51.8502L130.832 55.123C128.1 58.1438 127.872 58.4514 127.872 59.1202C127.872 59.9006 128.363 60.467 129.039 60.467C129.257 60.467 130.586 59.1688 132.459 57.1268L135.522 53.7866L138.494 57.0269C141.238 60.0181 141.517 60.2672 142.127 60.2672C142.838 60.2672 143.354 59.7287 143.354 58.9867C143.354 58.7473 142.174 57.2917 140.319 55.2431L137.284 51.8917L140.228 48.5083C143.36 44.9087 143.57 44.5143 142.807 43.677C142.056 42.8527 141.732 43.0771 138.556 46.6182Z" fill="#949494"/>
</svg>
