<svg width="83" height="82" viewBox="0 0 83 82" fill="none" xmlns="http://www.w3.org/2000/svg">
<g opacity="0.3">
<path d="M0.687405 13.5614C0.287302 12.5132 2.48894 10.0033 7.22419 6.11072C11.1518 2.88173 14.5112 0.22758 14.6899 0.212621C14.8687 0.196594 17.8344 2.10707 21.2821 4.45776C24.7297 6.80846 27.8422 8.73175 28.1987 8.73175C28.5552 8.73175 31.7283 6.76679 35.2494 4.36588L41.6522 3.64135e-06L48.1273 4.36588C51.6878 6.76679 54.8864 8.73068 55.2333 8.72854C55.5813 8.7264 58.7257 6.81593 62.2213 4.48234C67.5205 0.944548 68.8666 0.456252 70.3233 1.54719C79.1235 8.13767 83 11.5291 83 12.636C83 15.5862 80.5483 15.0733 75.7928 11.1284C68.3962 4.99522 68.7198 5.02621 61.7361 9.78849L55.3333 14.1544L49.0072 9.83978C45.5276 7.46772 42.2959 5.52734 41.8245 5.52947C41.3531 5.53161 38.1098 7.44101 34.6163 9.77354C27.5241 14.508 29.2607 14.7175 18.8772 7.86733L14.8761 5.22814L8.59154 10.1849C5.13533 12.9117 2.07923 15.1427 1.79937 15.1427C1.52058 15.1427 1.0194 14.4311 0.687405 13.5614Z" fill="#99350A"/>
<path d="M0.532049 26.0425C0.532049 25.3768 3.63603 22.2354 7.42956 19.062L14.326 13.2932L21.1086 17.861L27.8912 22.4299L34.328 18.2521C37.8693 15.9548 41.1968 14.0742 41.7235 14.0742C42.2502 14.0742 45.4521 15.9644 48.8402 18.2745L54.9992 22.4737L61.2849 18.2777C64.7421 15.9698 67.9472 14.0796 68.408 14.0774C69.9956 14.071 83.0383 25.177 82.6872 26.2359C81.937 28.4947 79.9631 27.8664 74.7777 23.7206C71.8163 21.3539 68.8453 19.4167 68.1739 19.4167C67.5035 19.4167 64.4655 21.0996 61.4243 23.1564C58.382 25.2133 55.5015 26.8962 55.0226 26.8962C54.5438 26.8962 51.3057 24.9547 47.8261 22.5827L41.5 18.2681L35.1739 22.5827C31.6943 24.9547 28.4626 26.8951 27.9912 26.893C27.5198 26.8908 24.3073 25.0017 20.8511 22.6948L14.5686 18.4999L8.73416 23.2729C3.18167 27.8129 0.532049 28.7084 0.532049 26.0425Z" fill="#99350A"/>
<path d="M-3.46881e-06 39.6786C-3.42164e-06 39.139 3.20185 36.0446 7.11456 32.8039C15.0783 26.2081 13.3832 26.1931 23.3911 32.9449C25.4289 34.319 27.49 35.4441 27.9721 35.4441C28.4541 35.4441 31.6943 33.5027 35.1739 31.1306L41.5 26.816L47.8261 31.1306C51.3057 33.5027 54.5374 35.4431 55.0088 35.4409C55.4802 35.4388 58.698 33.5465 62.1606 31.2354L68.4548 27.033L74.6638 31.9299C82.6127 38.2009 83.6704 39.4724 82.1828 40.9661C81.356 41.7964 79.2416 40.7108 74.6925 37.1228L68.3537 32.1222L61.6679 36.4614C54.1916 41.3134 56.0037 41.5228 45.5032 34.5958L41.5245 31.9715L34.66 36.4624L27.7954 40.9533L21.2661 36.502L14.7368 32.0495L8.43832 37.0191C2.73473 41.5185 -3.70505e-06 42.3808 -3.46881e-06 39.6786Z" fill="#99350A"/>
<path d="M0.970443 54.5595C-0.360749 52.4471 -0.203233 52.2398 7.31785 46.2189C11.0507 43.2313 14.309 40.7866 14.5591 40.7866C14.8091 40.7866 17.8897 42.7473 21.4044 45.144L27.7954 49.5013L34.6472 45.0189L41.5 40.5355L48.3528 45.0189L55.2046 49.5013L61.6648 45.0969C68.8368 40.2064 68.21 40.121 76.9569 47.1976C83.4224 52.429 83.3969 52.3926 82.0306 54.5595C81.2932 55.7295 79.8066 54.9912 75.0331 51.0869C71.6992 48.3601 68.6559 46.1302 68.2707 46.1323C67.8855 46.1345 64.7421 48.0246 61.2849 50.3326L54.9992 54.5286L48.8402 50.3294C45.4521 48.0193 42.1491 46.1291 41.5 46.1291C40.8509 46.1291 37.5479 48.0193 34.1598 50.3294L28.0008 54.5285L21.7151 50.3326C18.2579 48.0246 15.1145 46.1345 14.7293 46.1323C14.3441 46.1302 11.3008 48.3601 7.96693 51.0869C3.19443 54.9901 1.7068 55.7285 0.970443 54.5595Z" fill="#99350A"/>
<path d="M0.532046 66.625C0.532046 65.9476 3.40512 62.9942 6.91666 60.0623C10.4282 57.1303 13.7801 54.7209 14.3654 54.7081C14.9506 54.6942 18.2578 56.5726 21.7151 58.8805L28.0008 63.0765L34.2886 58.7897C37.7459 56.4315 41.2616 54.7668 42.0991 55.0895C42.9376 55.4122 46.2065 57.3366 49.3648 59.3646L55.1067 63.053L61.3391 58.8955C64.7666 56.6089 67.9472 54.7241 68.4079 54.707C69.6487 54.6621 83 65.595 83 66.656C83 69.3144 79.364 68.3196 74.7255 64.3918C71.8854 61.9867 68.9751 60.0196 68.2579 60.0196C67.5407 60.0196 64.4655 61.7024 61.4243 63.7593C58.382 65.8162 55.5015 67.499 55.0226 67.499C54.5438 67.499 51.3557 65.5918 47.9368 63.2603L41.7202 59.0216L35.1899 63.2603C31.5975 65.5918 28.3094 67.499 27.8827 67.499C27.456 67.499 24.618 65.8161 21.5757 63.7593C18.5345 61.7024 15.5338 60.0196 14.9081 60.0196C14.2824 60.0196 11.3252 61.961 8.33512 64.3341C3.11144 68.4799 0.532045 69.2375 0.532046 66.625Z" fill="#99350A"/>
<path d="M0.912962 81.6651C-0.675743 80.0699 0.252209 78.8849 7.80521 72.8682C15.1199 67.0428 13.6535 66.9787 23.3911 73.5478C25.4288 74.9219 27.49 76.047 27.972 76.047C28.4541 76.047 31.6837 74.113 35.1505 71.7484L41.4542 67.4509L47.725 71.7484C51.1737 74.113 54.416 76.0459 54.93 76.0438C55.445 76.0417 58.698 74.1494 62.1606 71.8382L68.4548 67.6358L74.6638 72.5327C82.6638 78.8443 83.6757 80.0699 82.153 81.5989C81.2846 82.4708 79.929 81.9601 77.0623 79.6842C67.231 71.8777 68.9752 72.1673 61.6892 77.1358L55.2046 81.5562L48.3528 77.0738L41.5 72.5904L34.6472 77.0738L27.7954 81.5562L21.3246 77.1443L14.8549 72.7336L8.46066 77.778C3.86906 81.4002 1.74083 82.4964 0.912962 81.6651Z" fill="#99350A"/>
</g>
</svg>
