<svg width="84" height="82" viewBox="0 0 84 82" fill="none" xmlns="http://www.w3.org/2000/svg">
<g opacity="0.3">
<path d="M83.3043 68.4386C83.7092 69.4868 81.4811 71.9967 76.6888 75.8893C72.7138 79.1183 69.314 81.7724 69.1331 81.7874C68.9522 81.8034 65.9508 79.8929 62.4615 77.5422C58.9723 75.1915 55.8223 73.2683 55.4615 73.2683C55.1008 73.2683 51.8894 75.2332 48.3259 77.6341L41.846 82L35.2929 77.6341C31.6895 75.2332 28.4523 73.2693 28.1012 73.2715C27.7491 73.2736 24.5667 75.1841 21.029 77.5177C15.666 81.0555 14.3037 81.5437 12.8294 80.4528C3.92325 73.8623 -6.62149e-06 70.4709 -6.52472e-06 69.364C-6.26681e-06 66.4138 2.48124 66.9267 7.29401 70.8716C14.7797 77.0048 14.4523 76.9738 21.5201 72.2115L28 67.8456L34.4023 72.1602C37.9239 74.5323 41.1945 76.4727 41.6715 76.4705C42.1486 76.4684 45.4311 74.559 48.9666 72.2265C56.1443 67.492 54.3868 67.2825 64.8954 74.1327L68.9446 76.7719L75.305 71.8151C78.8028 69.0883 81.8957 66.8573 82.1789 66.8573C82.4611 66.8573 82.9683 67.5689 83.3043 68.4386Z" fill="#99350A"/>
<path d="M83.4615 55.9575C83.4615 56.6232 80.3202 59.7646 76.4809 62.938L69.5014 68.7068L62.6371 64.139L55.7728 59.5701L49.2585 63.7479C45.6745 66.0452 42.3069 67.9258 41.7738 67.9258C41.2407 67.9258 38.0003 66.0356 34.5714 63.7255L28.3382 59.5263L21.9767 63.7223C18.4778 66.0302 15.2342 67.9204 14.7679 67.9226C13.1611 67.929 -0.0387628 56.823 0.316622 55.7641C1.07585 53.5053 3.07353 54.1336 8.32138 58.2794C11.3184 60.6461 14.3252 62.5833 15.0047 62.5833C15.6832 62.5833 18.7578 60.9004 21.8357 58.8436C24.9146 56.7867 27.8298 55.1038 28.3145 55.1038C28.7991 55.1038 32.0761 57.0453 35.5977 59.4173L42 63.7319L48.4023 59.4173C51.9239 57.0453 55.1945 55.1049 55.6715 55.107C56.1486 55.1092 59.3999 56.9983 62.8977 59.3052L69.2559 63.5001L75.1606 58.7271C80.78 54.1871 83.4615 53.2916 83.4615 55.9575Z" fill="#99350A"/>
<path d="M84 42.3214C84 42.861 80.7596 45.9554 76.7997 49.1961C68.74 55.7919 70.4555 55.8069 60.3271 49.0551C58.2648 47.681 56.1788 46.5559 55.6909 46.5559C55.2031 46.5559 51.9239 48.4973 48.4023 50.8694L42 55.184L35.5977 50.8694C32.0761 48.4973 28.8055 46.5569 28.3285 46.5591C27.8514 46.5612 24.5948 48.4535 21.0904 50.7646L14.7205 54.967L8.43659 50.0701C0.391979 43.7991 -0.678456 42.5276 0.827083 41.0339C1.66385 40.2036 3.8037 41.2892 8.40754 44.8772L14.8227 49.8778L21.5891 45.5386C29.1555 40.6866 27.3215 40.4772 37.9486 47.4042L41.9752 50.0285L48.9224 45.5376L55.8697 41.0467L62.4777 45.498L69.0857 49.9505L75.46 44.9809C81.2323 40.4815 84 39.6192 84 42.3214Z" fill="#99350A"/>
<path d="M83.0179 27.4405C84.3651 29.5529 84.2057 29.7602 76.594 35.7811C72.8161 38.7687 69.5186 41.2134 69.2655 41.2134C69.0125 41.2134 65.8948 39.2527 62.3377 36.856L55.8697 32.4987L48.9354 36.9811L42 41.4645L35.0646 36.9811L28.1303 32.4987L21.5923 36.9031C14.3338 41.7936 14.9682 41.879 6.11586 34.8024C-0.427524 29.571 -0.401675 29.6074 0.981092 27.4405C1.7274 26.2705 3.23185 27.0088 8.06292 30.9131C11.4369 33.6399 14.5169 35.8698 14.9067 35.8677C15.2966 35.8655 18.4778 33.9754 21.9768 31.6674L28.3382 27.4714L34.5714 31.6706C38.0003 33.9807 41.3431 35.8709 42 35.8709C42.6569 35.8709 45.9997 33.9807 49.4286 31.6706L55.6618 27.4715L62.0233 31.6674C65.5222 33.9754 68.7034 35.8655 69.0933 35.8677C69.4831 35.8698 72.5631 33.6399 75.9371 30.9131C80.7671 27.0099 82.2726 26.2715 83.0179 27.4405Z" fill="#99350A"/>
<path d="M83.4615 15.375C83.4615 16.0524 80.5539 19.0058 77 21.9377C73.4462 24.8697 70.0539 27.2791 69.4615 27.2919C68.8692 27.3058 65.5222 25.4274 62.0233 23.1195L55.6618 18.9235L49.2983 23.2103C45.7994 25.5685 42.2412 27.2332 41.3937 26.9105C40.5451 26.5878 37.2368 24.6634 34.0405 22.6354L28.2294 18.947L21.9219 23.1045C18.4531 25.3911 15.2342 27.2759 14.7679 27.293C13.5122 27.3379 -1.8949e-06 16.405 -1.80214e-06 15.344C-1.56974e-06 12.6856 3.67985 13.6804 8.37416 17.6082C11.2485 20.0133 14.1938 21.9804 14.9197 21.9804C15.6455 21.9804 18.7578 20.2976 21.8357 18.2407C24.9146 16.1838 27.8298 14.501 28.3145 14.501C28.7991 14.501 32.0255 16.4082 35.4857 18.7397L41.7771 22.9784L48.3861 18.7397C52.0218 16.4082 55.3495 14.501 55.7814 14.501C56.2132 14.501 59.0854 16.1839 62.1643 18.2407C65.2422 20.2976 68.2791 21.9804 68.9123 21.9804C69.5455 21.9804 72.5383 20.039 75.5645 17.6659C80.8511 13.5201 83.4615 12.7625 83.4615 15.375Z" fill="#99350A"/>
<path d="M83.076 0.334862C84.6839 1.93012 83.7448 3.11509 76.1008 9.13179C68.698 14.9572 70.182 15.0213 60.3271 8.45222C58.2648 7.07813 56.1788 5.953 55.6909 5.953C55.2031 5.953 51.9346 7.88698 48.426 10.2516L42.0463 14.5491L35.7 10.2516C32.2097 7.88697 28.9283 5.95408 28.4082 5.95621C27.887 5.95835 24.5948 7.85064 21.0904 10.1618L14.7205 14.3642L8.4366 9.46729C0.340293 3.15568 -0.683823 1.93011 0.857254 0.401093C1.73603 -0.470802 3.10802 0.0399404 6.00925 2.31583C15.9589 10.1223 14.1938 9.83271 21.5675 4.86421L28.1303 0.443828L35.0646 4.92618L42 9.40959L48.9354 4.92618L55.8697 0.44383L62.4185 4.85567L68.9661 9.26641L75.4374 4.22205C80.0843 0.599846 82.2382 -0.49643 83.076 0.334862Z" fill="#99350A"/>
</g>
</svg>
