<svg width="83" height="84" viewBox="0 0 83 84" fill="none" xmlns="http://www.w3.org/2000/svg">
<g opacity="0.3">
<path d="M13.7267 83.3043C12.6658 83.7092 10.1252 81.4811 6.18524 76.6888C2.91687 72.7138 0.230354 69.314 0.215212 69.1331C0.198989 68.9522 2.13277 65.9508 4.51212 62.4615C6.89148 58.9723 8.83823 55.8223 8.83823 55.4615C8.83823 55.1008 6.8493 51.8894 4.41911 48.3259L-1.84261e-06 41.846L4.41911 35.2929C6.8493 31.6895 8.83714 28.4523 8.83498 28.1012C8.83281 27.7491 6.89905 24.5667 4.53699 21.0291C0.956057 15.666 0.461807 14.3037 1.56605 12.8294C8.2369 3.92326 11.6697 -5.10098e-07 12.7901 -5.59075e-07C15.7762 -6.89601e-07 15.2571 2.48125 11.2641 7.29401C5.05613 14.7797 5.08749 14.4523 9.90786 21.5201L14.327 28L9.95977 34.4023C7.55879 37.9239 5.59474 41.1945 5.5969 41.6715C5.59906 42.1486 7.53175 45.4311 9.89273 48.9666C14.685 56.1443 14.8969 54.3868 7.96327 64.8954L5.2919 68.9446L10.3091 75.305C13.0692 78.8028 15.3274 81.8957 15.3274 82.1789C15.3274 82.4611 14.6071 82.9683 13.7267 83.3043Z" fill="#99350A"/>
<path d="M26.36 83.4615C25.6863 83.4615 22.5066 80.3202 19.2944 76.4809L13.4553 69.5014L18.0788 62.6371L22.7034 55.7728L18.4746 49.2585C16.1494 45.6745 14.2459 42.3069 14.2459 41.7738C14.2459 41.2407 16.1591 38.0003 18.4973 34.5714L22.7477 28.3382L18.5006 21.9768C16.1645 18.4778 14.2513 15.2342 14.2491 14.7679C14.2426 13.1611 25.484 -0.0387584 26.5558 0.316626C28.8421 1.07586 28.2062 3.07353 24.0099 8.32138C21.6143 11.3185 19.6535 14.3252 19.6535 15.0048C19.6535 15.6832 21.3569 18.7578 23.4388 21.8357C25.5208 24.9146 27.2242 27.8298 27.2242 28.3145C27.2242 28.7991 25.259 32.0761 22.8581 35.5977L18.4909 42L22.8581 48.4023C25.259 51.9239 27.2231 55.1945 27.2209 55.6715C27.2188 56.1486 25.3066 59.3999 22.9716 62.8977L18.7255 69.2559L23.5567 75.1606C28.1521 80.78 29.0585 83.4615 26.36 83.4615Z" fill="#99350A"/>
<path d="M40.1625 84C39.6163 84 36.4842 80.7596 33.2039 76.7997C26.5277 68.74 26.5125 70.4555 33.3467 60.3271C34.7375 58.2648 35.8764 56.1788 35.8764 55.6909C35.8764 55.2031 33.9113 51.9239 31.5103 48.4023L27.1431 42L31.5103 35.5977C33.9113 32.0761 35.8753 28.8055 35.8731 28.3285C35.871 27.8514 33.9556 24.5948 31.6163 21.0904L27.3626 14.7205L32.3192 8.4366C38.6667 0.391981 39.9537 -0.678453 41.4657 0.827086C42.3061 1.66385 41.2072 3.8037 37.5755 8.40755L32.5139 14.8227L36.906 21.5891C41.8172 29.1555 42.0292 27.3215 35.0177 37.9486L32.3614 41.9752L36.9071 48.9224L41.4527 55.8697L36.9471 62.4777L32.4404 69.0857L37.4706 75.46C42.0249 81.2323 42.8977 84 40.1625 84Z" fill="#99350A"/>
<path d="M55.2249 83.0179C53.0867 84.3651 52.8769 84.2057 46.7825 76.594C43.7586 72.8161 41.284 69.5186 41.284 69.2655C41.284 69.0125 43.2686 65.8948 45.6945 62.3377L50.105 55.8697L45.5679 48.9354L41.0299 42L45.5679 35.0646L50.105 28.1303L45.6469 21.5923C40.6968 14.3338 40.6102 14.9682 47.7732 6.11587C53.0683 -0.427523 53.0316 -0.401675 55.2249 0.981092C56.4092 1.7274 55.6618 3.23185 51.7099 8.06292C48.9499 11.4369 46.6927 14.5169 46.6949 14.9068C46.6971 15.2966 48.6103 18.4778 50.9464 21.9768L55.1935 28.3382L50.9431 34.5714C48.6049 38.0003 46.6917 41.3431 46.6917 42C46.6917 42.6569 48.6049 45.9997 50.9431 49.4286L55.1935 55.6618L50.9464 62.0232C48.6103 65.5222 46.6971 68.7034 46.6949 69.0933C46.6927 69.4831 48.9499 72.5631 51.7099 75.9371C55.6608 80.7671 56.4081 82.2726 55.2249 83.0179Z" fill="#99350A"/>
<path d="M67.4375 83.4615C66.7518 83.4615 63.7625 80.5538 60.7948 77C57.827 73.4462 55.3882 70.0538 55.3752 69.4615C55.3612 68.8692 57.2625 65.5222 59.5986 62.0232L63.8457 55.6618L59.5067 49.2983C57.1197 45.7994 55.4347 42.2412 55.7613 41.3937C56.088 40.5451 58.0358 37.2368 60.0885 34.0405L63.822 28.2294L59.6137 21.9219C57.2993 18.4531 55.3915 15.2342 55.3742 14.7679C55.3287 13.5122 66.3949 -2.90221e-06 67.4689 -2.94916e-06C70.1597 -3.06678e-06 69.1528 3.67985 65.1771 8.37416C62.7426 11.2485 60.7515 14.1938 60.7515 14.9197C60.7515 15.6455 62.4549 18.7578 64.5368 21.8357C66.6188 24.9146 68.3222 27.8298 68.3222 28.3145C68.3222 28.7991 66.3917 32.0255 64.0318 35.4857L59.7414 41.7771L64.0318 48.3861C66.3917 52.0218 68.3222 55.3495 68.3222 55.7814C68.3222 56.2132 66.6188 59.0854 64.5368 62.1643C62.4549 65.2422 60.7515 68.2791 60.7515 68.9123C60.7515 69.5455 62.7166 72.5383 65.1187 75.5645C69.315 80.8511 70.0818 83.4615 67.4375 83.4615Z" fill="#99350A"/>
<path d="M82.6611 83.076C81.0463 84.6839 79.8469 83.7447 73.7569 76.1007C67.8604 68.698 67.7955 70.182 74.4447 60.3271C75.8356 58.2648 76.9744 56.1788 76.9744 55.6909C76.9744 55.2031 75.0168 51.9346 72.6234 48.426L68.2735 42.0463L72.6234 35.7C75.0168 32.2097 76.9733 28.9283 76.9712 28.4082C76.969 27.887 75.0536 24.5948 72.7143 21.0904L68.4606 14.7205L73.4173 8.4366C79.8058 0.34029 81.0463 -0.683826 82.594 0.85725C83.4765 1.73603 82.9596 3.10802 80.6559 6.00925C72.7543 15.9589 73.0474 14.1938 78.0765 21.5675L82.5508 28.1303L78.0137 35.0646L73.4757 42L78.0137 48.9354L82.5508 55.8697L78.0851 62.4185L73.6206 68.9661L78.7265 75.4374C82.3928 80.0843 83.5025 82.2382 82.6611 83.076Z" fill="#99350A"/>
</g>
</svg>
