<svg width="82" height="84" viewBox="0 0 82 84" fill="none" xmlns="http://www.w3.org/2000/svg">
<g opacity="0.3">
<path d="M68.4386 0.695688C69.4868 0.290765 71.9967 2.51893 75.8893 7.31123C79.1183 11.2862 81.7724 14.686 81.7874 14.8669C81.8034 15.0478 79.8929 18.0492 77.5422 21.5385C75.1915 25.0277 73.2683 28.1777 73.2683 28.5385C73.2683 28.8992 75.2332 32.1106 77.6341 35.6741L82 42.154L77.6341 48.7071C75.2332 52.3105 73.2693 55.5477 73.2715 55.8988C73.2736 56.2509 75.1841 59.4333 77.5177 62.971C81.0555 68.334 81.5438 69.6963 80.4528 71.1706C73.8623 80.0768 70.4709 84 69.364 84C66.4138 84 66.9267 81.5188 70.8716 76.706C77.0048 69.2203 76.9738 69.5477 72.2115 62.4799L67.8456 56L72.1602 49.5977C74.5323 46.0761 76.4727 42.8055 76.4705 42.3285C76.4684 41.8514 74.559 38.5689 72.2265 35.0334C67.492 27.8557 67.2825 29.6132 74.1327 19.1046L76.7719 15.0554L71.8151 8.69505C69.0883 5.1972 66.8573 2.10429 66.8573 1.82105C66.8573 1.5389 67.5689 1.03169 68.4386 0.695688Z" fill="#99350A"/>
<path d="M55.9575 0.538462C56.6232 0.538462 59.7646 3.67984 62.938 7.51907L68.7068 14.4986L64.139 21.3629L59.5701 28.2272L63.748 34.7416C66.0452 38.3256 67.9258 41.6931 67.9258 42.2262C67.9258 42.7593 66.0356 45.9997 63.7255 49.4286L59.5263 55.6618L63.7223 62.0233C66.0303 65.5222 67.9204 68.7658 67.9226 69.2321C67.929 70.8389 56.823 84.0388 55.7641 83.6834C53.5053 82.9241 54.1336 80.9265 58.2794 75.6786C60.6461 72.6816 62.5833 69.6748 62.5833 68.9953C62.5833 68.3168 60.9004 65.2422 58.8436 62.1643C56.7867 59.0854 55.1038 56.1702 55.1038 55.6856C55.1038 55.2009 57.0453 51.9239 59.4173 48.4023L63.7319 42L59.4173 35.5977C57.0453 32.0761 55.1049 28.8055 55.107 28.3285C55.1092 27.8514 56.9983 24.6001 59.3052 21.1023L63.5001 14.7441L58.7271 8.83939C54.1871 3.22001 53.2916 0.538462 55.9575 0.538462Z" fill="#99350A"/>
<path d="M42.3214 4.73163e-07C42.861 4.66728e-07 45.9553 3.24043 49.1961 7.20028C55.7919 15.26 55.8069 13.5445 49.0551 23.6729C47.681 25.7352 46.5559 27.8212 46.5559 28.3091C46.5559 28.7969 48.4973 32.0761 50.8694 35.5977L55.184 42L50.8694 48.4023C48.4973 51.9239 46.5569 55.1945 46.5591 55.6716C46.5612 56.1486 48.4535 59.4053 50.7647 62.9096L54.967 69.2795L50.0701 75.5634C43.7991 83.608 42.5276 84.6785 41.0339 83.1729C40.2036 82.3362 41.2892 80.1963 44.8772 75.5925L49.8778 69.1773L45.5386 62.4109C40.6866 54.8445 40.4772 56.6785 47.4042 46.0514L50.0285 42.0248L45.5376 35.0776L41.0467 28.1303L45.498 21.5223L49.9505 14.9143L44.9809 8.53999C40.4815 2.76768 39.6192 5.05386e-07 42.3214 4.73163e-07Z" fill="#99350A"/>
<path d="M27.4405 0.982141C29.5529 -0.36509 29.7602 -0.205676 35.7811 7.40602C38.7687 11.1839 41.2134 14.4814 41.2134 14.7345C41.2134 14.9875 39.2527 18.1052 36.856 21.6623L32.4987 28.1303L36.9811 35.0646L41.4645 42L36.9811 48.9354L32.4987 55.8697L36.9031 62.4077C41.7936 69.6662 41.879 69.0318 34.8024 77.8841C29.571 84.4275 29.6074 84.4017 27.4405 83.0189C26.2705 82.2726 27.0088 80.7682 30.9131 75.9371C33.6399 72.5631 35.8698 69.4831 35.8677 69.0933C35.8655 68.7034 33.9754 65.5222 31.6674 62.0233L27.4715 55.6618L31.6706 49.4286C33.9807 45.9997 35.8709 42.6569 35.8709 42C35.8709 41.3431 33.9807 38.0003 31.6706 34.5714L27.4715 28.3382L31.6674 21.9768C33.9754 18.4778 35.8655 15.2966 35.8677 14.9067C35.8698 14.5169 33.6399 11.4369 30.9131 8.06292C27.0099 3.23292 26.2715 1.72737 27.4405 0.982141Z" fill="#99350A"/>
<path d="M15.375 0.538462C16.0524 0.538462 19.0058 3.44615 21.9377 7C24.8697 10.5538 27.2791 13.9462 27.2919 14.5385C27.3058 15.1308 25.4274 18.4778 23.1194 21.9768L18.9235 28.3382L23.2103 34.7017C25.5685 38.2006 27.2332 41.7588 26.9105 42.6063C26.5878 43.4549 24.6634 46.7632 22.6354 49.9595L18.947 55.7706L23.1045 62.0781C25.3911 65.5469 27.2759 68.7658 27.293 69.2321C27.3379 70.4878 16.405 84 15.344 84C12.6856 84 13.6804 80.3202 17.6082 75.6258C20.0133 72.7515 21.9804 69.8062 21.9804 69.0803C21.9804 68.3545 20.2976 65.2422 18.2407 62.1643C16.1838 59.0854 14.501 56.1702 14.501 55.6856C14.501 55.2009 16.4082 51.9745 18.7397 48.5143L22.9784 42.2229L18.7397 35.6139C16.4082 31.9782 14.501 28.6505 14.501 28.2186C14.501 27.7868 16.1838 24.9146 18.2407 21.8357C20.2976 18.7578 21.9804 15.7209 21.9804 15.0877C21.9804 14.4545 20.039 11.4617 17.6659 8.43555C13.5201 3.14893 12.7625 0.538462 15.375 0.538462Z" fill="#99350A"/>
<path d="M0.334847 0.92397C1.93011 -0.683876 3.11508 0.255255 9.13178 7.89926C14.9572 15.302 15.0213 13.818 8.45222 23.6729C7.07813 25.7352 5.953 27.8212 5.953 28.3091C5.953 28.7969 7.88697 32.0654 10.2516 35.574L14.549 41.9537L10.2516 48.3C7.88697 51.7903 5.95407 55.0717 5.95621 55.5918C5.95834 56.1131 7.85064 59.4053 10.1618 62.9096L14.3642 69.2795L9.46729 75.5634C3.15568 83.6597 1.93012 84.6838 0.401094 83.1428C-0.470801 82.264 0.0399408 80.892 2.31583 77.9908C10.1223 68.0411 9.83271 69.8062 4.86421 62.4325L0.443825 55.8697L4.92618 48.9354L9.40958 42L4.92618 35.0646L0.443825 28.1303L4.85566 21.5815L9.2664 15.0339L4.22204 8.5626C0.599838 3.91568 -0.496437 1.76182 0.334847 0.92397Z" fill="#99350A"/>
</g>
</svg>
